<svg width="56" height="56" viewBox="0 0 56 56" fill="none" xmlns="http://www.w3.org/2000/svg">
<path d="M49.0001 30.3286V43.5586C49.0001 48.2311 46.6726 51.3286 41.2301 51.3286H28.7876C23.3451 51.3286 21.0176 48.2136 21.0176 43.5586V30.3286C21.0176 25.6561 23.3451 22.5586 28.7876 22.5586H41.2301C46.6726 22.5586 49.0001 25.6736 49.0001 30.3286Z" fill="#FFCB09"/>
<path d="M19.8457 32.8106C19.4957 32.8106 19.1632 32.6706 18.9182 32.4256C18.7957 32.3031 18.6907 32.1631 18.6382 31.9881C18.5682 31.8306 18.5332 31.6731 18.5332 31.4981C18.5332 31.3231 18.5682 31.1481 18.6382 30.9906C18.6907 30.8331 18.7957 30.6931 18.9182 30.5706C19.4082 30.0806 20.2832 30.0806 20.7732 30.5706C21.0182 30.8156 21.1582 31.1481 21.1582 31.4981C21.1582 31.6731 21.1232 31.8306 21.0532 31.9881C20.9832 32.1631 20.8957 32.3031 20.7732 32.4256C20.5282 32.6706 20.1782 32.8106 19.8457 32.8106Z" fill="black"/>
<path d="M28.0001 32.813C27.8426 32.813 27.6676 32.778 27.5101 32.708C27.3526 32.638 27.1951 32.5505 27.0901 32.428C26.9676 32.3055 26.8626 32.1655 26.7926 31.9905C26.7401 31.833 26.7051 31.6755 26.7051 31.5005C26.7051 31.3255 26.7401 31.1505 26.7926 30.993C26.8626 30.8355 26.9676 30.6955 27.0901 30.573C27.1951 30.4505 27.3526 30.3455 27.5101 30.2755C27.8251 30.153 28.1926 30.153 28.5076 30.2755C28.6651 30.3455 28.8226 30.4505 28.9451 30.573C29.0676 30.6955 29.1551 30.8355 29.2251 30.993C29.2951 31.1505 29.3126 31.3255 29.3126 31.5005C29.3126 31.6755 29.2951 31.833 29.2251 31.9905C29.1551 32.1655 29.0676 32.3055 28.9451 32.428C28.8226 32.5505 28.6651 32.638 28.5076 32.708C28.3501 32.778 28.1751 32.813 28.0001 32.813Z" fill="black"/>
<path d="M36.1719 32.8106C35.8394 32.8106 35.4894 32.6706 35.2444 32.4256C35.1219 32.3031 35.0344 32.1631 34.9644 31.9881C34.8944 31.8306 34.8594 31.6731 34.8594 31.4981C34.8594 31.1481 34.9994 30.8156 35.2444 30.5706C35.7344 30.0806 36.6094 30.0806 37.0994 30.5706C37.2219 30.6931 37.3269 30.8331 37.3794 30.9906C37.4494 31.1481 37.4844 31.3231 37.4844 31.4981C37.4844 31.6731 37.4494 31.8306 37.3794 31.9881C37.3269 32.1631 37.2219 32.3031 37.0994 32.4256C36.8544 32.6706 36.5219 32.8106 36.1719 32.8106Z" fill="black"/>
<path d="M19.8457 40.9688C19.6707 40.9688 19.4957 40.9338 19.3382 40.8813C19.1807 40.8113 19.0407 40.7063 18.9182 40.5838C18.6732 40.3388 18.5332 40.0238 18.5332 39.6563C18.5332 39.2888 18.6732 38.9737 18.9182 38.7287C19.0407 38.6062 19.1807 38.5188 19.3382 38.4488C19.6532 38.3087 20.0207 38.3087 20.3532 38.4488C20.5107 38.5188 20.6507 38.6062 20.7732 38.7287C21.0182 38.9737 21.1582 39.3063 21.1582 39.6563C21.1582 40.0063 21.0182 40.3388 20.7732 40.5838C20.6507 40.7063 20.5107 40.8113 20.3532 40.8813C20.1957 40.9338 20.0207 40.9688 19.8457 40.9688Z" fill="black"/>
<path d="M28 40.9662C27.65 40.9662 27.3175 40.8437 27.0725 40.5812C26.81 40.3362 26.6875 40.0037 26.6875 39.6537C26.6875 39.3037 26.81 38.9887 27.0725 38.7262C27.44 38.3587 28.0175 38.2537 28.49 38.4462C28.6475 38.5162 28.7875 38.6037 28.91 38.7262C29.1725 38.9712 29.295 39.3037 29.295 39.6537C29.295 40.0037 29.1725 40.3362 28.91 40.5812C28.7875 40.7037 28.6475 40.8087 28.49 40.8787C28.3325 40.9312 28.175 40.9662 28 40.9662Z" fill="black"/>
<path d="M36.1719 40.9662C35.8219 40.9662 35.4894 40.8437 35.2444 40.5812C34.9994 40.3362 34.8594 40.0037 34.8594 39.6537C34.8594 39.3037 34.9994 38.9887 35.2444 38.7262C35.6294 38.3587 36.1894 38.2537 36.6794 38.4462C36.8369 38.5162 36.9769 38.6037 37.0994 38.7262C37.3444 38.9712 37.4844 39.3037 37.4844 39.6537C37.4844 40.0037 37.3444 40.3362 37.0994 40.5812C36.8544 40.8437 36.5219 40.9662 36.1719 40.9662Z" fill="black"/>
<path d="M18.6719 12.5469C18.1819 12.5469 17.7969 12.1619 17.7969 11.6719V4.67188C17.7969 4.18187 18.1819 3.79688 18.6719 3.79688C19.1619 3.79688 19.5469 4.18187 19.5469 4.67188V11.6719C19.5469 12.1619 19.1619 12.5469 18.6719 12.5469Z" fill="black"/>
<path d="M37.3281 12.5469C36.8381 12.5469 36.4531 12.1619 36.4531 11.6719V4.67188C36.4531 4.18187 36.8381 3.79688 37.3281 3.79688C37.8181 3.79688 38.2031 4.18187 38.2031 4.67188V11.6719C38.2031 12.1619 37.8181 12.5469 37.3281 12.5469Z" fill="black"/>
<path d="M47.8269 22.0664H8.17188C7.68187 22.0664 7.29688 21.6814 7.29688 21.1914C7.29688 20.7014 7.68187 20.3164 8.17188 20.3164H47.8269C48.3169 20.3164 48.7019 20.7014 48.7019 21.1914C48.7019 21.6814 48.3169 22.0664 47.8269 22.0664Z" fill="black"/>
<path d="M37.3275 52.2038H18.6725C10.5875 52.2038 6.125 47.7588 6.125 39.6562V19.8288C6.125 11.7438 10.57 7.28125 18.6725 7.28125H37.345C45.43 7.28125 49.8925 11.7262 49.8925 19.8288V39.6562C49.8925 47.7412 45.4475 52.2038 37.345 52.2038H37.3275ZM18.6725 9.04875C11.515 9.04875 7.875 12.6888 7.875 19.8463V39.6738C7.875 46.8312 11.515 50.4713 18.6725 50.4713H37.345C44.5025 50.4713 48.1425 46.8312 48.1425 39.6738V19.8288C48.1425 12.6712 44.5025 9.03125 37.345 9.03125H18.6725V9.04875Z" fill="black"/>
</svg>
