<svg width="56" height="56" viewBox="0 0 56 56" fill="none" xmlns="http://www.w3.org/2000/svg">
<path d="M47.5474 31.8309C47.5474 40.4234 40.5824 47.3884 31.9899 47.3884C23.3974 47.3884 16.4324 40.4234 16.4324 31.8309C16.4324 23.2384 23.3974 16.2734 31.9899 16.2734C40.5824 16.2734 47.5474 23.2384 47.5474 31.8309Z" fill="#FFCB09"/>
<path d="M27.9999 52.2044C26.8274 52.2044 25.6374 51.7494 24.7449 50.8569L21.1924 47.3044C20.7549 46.8669 19.7924 46.4644 19.1799 46.4644H14.1574C11.6199 46.4644 9.55494 44.3994 9.55494 41.8619V36.8394C9.55494 36.2269 9.15244 35.2644 8.71494 34.8094L5.16244 31.2569C4.28744 30.3819 3.81494 29.2269 3.81494 28.0019C3.81494 26.7769 4.28744 25.6044 5.16244 24.7469L8.71494 21.1944C9.15244 20.7569 9.55494 19.7944 9.55494 19.1819V14.1594C9.55494 11.6219 11.6199 9.55688 14.1574 9.55688H19.1799C19.7924 9.55688 20.7549 9.15438 21.1924 8.71688L24.7449 5.16437C26.5474 3.36187 29.4699 3.36187 31.2549 5.16437L34.8074 8.71688C35.2449 9.15438 36.2074 9.55688 36.8374 9.55688H41.8599C44.3974 9.55688 46.4624 11.6219 46.4624 14.1594V19.1819C46.4624 19.7944 46.8649 20.7569 47.3024 21.1944L50.8549 24.7469C51.7299 25.6219 52.2024 26.7769 52.2024 28.0019C52.2024 29.2269 51.7299 30.3994 50.8549 31.2569L47.3024 34.8094C46.8649 35.2469 46.4624 36.2094 46.4624 36.8394V41.8619C46.4624 44.3994 44.3974 46.4644 41.8599 46.4644H36.8374C36.2249 46.4644 35.2624 46.8669 34.8074 47.3044L31.2549 50.8569C30.3624 51.7494 29.1724 52.2044 27.9999 52.2044ZM14.1399 11.2894C12.5649 11.2894 11.2874 12.5669 11.2874 14.1419V19.1644C11.2874 20.2494 10.7099 21.6494 9.93994 22.4194L6.38744 25.9719C5.84494 26.5144 5.54744 27.2319 5.54744 27.9844C5.54744 28.7369 5.84494 29.4719 6.38744 30.0144L9.93994 33.5669C10.7099 34.3369 11.2874 35.7369 11.2874 36.8219V41.8444C11.2874 43.4194 12.5649 44.6969 14.1399 44.6969H19.1624C20.2474 44.6969 21.6474 45.2744 22.4174 46.0444L25.9699 49.5969C27.0899 50.7169 28.8924 50.7169 30.0124 49.5969L33.5649 46.0444C34.3349 45.2744 35.7349 44.6969 36.8199 44.6969H41.8424C43.4174 44.6969 44.6949 43.4194 44.6949 41.8444V36.8219C44.6949 35.7369 45.2724 34.3369 46.0424 33.5669L49.5949 30.0144C50.1374 29.4719 50.4349 28.7544 50.4349 27.9844C50.4349 27.2144 50.1374 26.4969 49.5949 25.9719L46.0424 22.4194C45.2724 21.6494 44.6949 20.2494 44.6949 19.1644V14.1419C44.6949 12.5669 43.4174 11.2894 41.8424 11.2894H36.8199C35.7349 11.2894 34.3349 10.7119 33.5649 9.94187L30.0124 6.38938C28.8924 5.26938 27.0899 5.26938 25.9699 6.38938L22.4174 9.94187C21.6474 10.7119 20.2474 11.2894 19.1624 11.2894H14.1399Z" fill="black"/>
<path d="M35 36.3125C34.2825 36.3125 33.6875 35.7175 33.6875 35C33.6875 34.2825 34.2825 33.6875 35 33.6875C35.7175 33.6875 36.3125 34.2825 36.3125 35C36.3125 35.7175 35.735 36.3125 35 36.3125Z" fill="black"/>
<path d="M21.0176 22.3125C20.3001 22.3125 19.7051 21.7175 19.7051 21C19.7051 20.2825 20.3001 19.6875 21.0176 19.6875C21.7351 19.6875 22.3301 20.2825 22.3301 21C22.3301 21.7175 21.7526 22.3125 21.0176 22.3125Z" fill="black"/>
<path d="M21 35.8769C20.7725 35.8769 20.545 35.7894 20.3875 35.6144C20.0375 35.2644 20.0375 34.7219 20.3875 34.3719L34.3875 20.3719C34.7375 20.0219 35.28 20.0219 35.63 20.3719C35.98 20.7219 35.98 21.2644 35.63 21.6144L21.63 35.6144C21.455 35.7894 21.2275 35.8769 21.0175 35.8769H21Z" fill="black"/>
</svg>
