<svg width="56" height="56" viewBox="0 0 56 56" fill="none" xmlns="http://www.w3.org/2000/svg">
<path d="M51.1931 43.4338C51.1931 47.1278 48.1907 50.1302 44.4967 50.1302C40.8027 50.1302 37.8003 47.1278 37.8003 43.4338C37.8003 39.7398 40.8027 36.7374 44.4967 36.7374C48.1907 36.7374 51.1931 39.7398 51.1931 43.4338Z" fill="#FFCB09"/>
<path d="M34.916 51.9012H21.0847C9.02442 51.9012 4.09912 46.9759 4.09912 34.9156V21.0843C4.09912 9.02406 9.02442 4.09875 21.0847 4.09875H32.6051C33.0774 4.09875 33.4485 4.46984 33.4485 4.94213C33.4485 5.41442 33.0774 5.7855 32.6051 5.7855H21.0847C10.0702 5.7855 5.78587 10.0698 5.78587 21.0843V34.9156C5.78587 45.9301 10.0702 50.2144 21.0847 50.2144H34.916C35.2365 50.2144 35.557 50.2144 35.8606 50.2144C36.3666 50.1469 36.7208 50.5518 36.7377 51.0072C36.7545 51.4795 36.4003 51.8674 35.9449 51.8843C35.6076 51.9012 35.2533 51.9012 34.8991 51.9012H34.916Z" fill="black"/>
<path d="M51.0577 35.759C50.5854 35.759 50.2144 35.388 50.2144 34.9157V23.3952C50.2144 22.9229 50.5854 22.5518 51.0577 22.5518C51.53 22.5518 51.9011 22.9229 51.9011 23.3952V34.8988C51.9011 35.3711 51.53 35.7422 51.0577 35.7422V35.759Z" fill="black"/>
<path d="M51.0576 24.2386H41.8311C34.4938 24.2386 31.7612 21.506 31.7612 14.1687V4.94217C31.7612 4.60482 31.9636 4.30121 32.2841 4.16627C32.6046 4.03133 32.9588 4.11566 33.195 4.35181L51.6311 22.788C51.8673 23.0241 51.9516 23.3952 51.8167 23.6988C51.6817 24.0024 51.3781 24.2217 51.0407 24.2217L51.0576 24.2386ZM33.448 6.98313V14.1687C33.448 20.5952 35.4046 22.5518 41.8311 22.5518H49.0167L33.448 6.98313Z" fill="black"/>
<path d="M28.2866 31.1542H14.7926C14.3203 31.1542 13.9492 30.7831 13.9492 30.3108C13.9492 29.8385 14.3203 29.4674 14.7926 29.4674H28.2866C28.7589 29.4674 29.1299 29.8385 29.1299 30.3108C29.1299 30.7831 28.7589 31.1542 28.2866 31.1542Z" fill="black"/>
<path d="M23.648 40.3639H14.7926C14.3203 40.3639 13.9492 39.9928 13.9492 39.5205C13.9492 39.0482 14.3203 38.6771 14.7926 38.6771H23.648C24.1203 38.6771 24.4914 39.0482 24.4914 39.5205C24.4914 39.9928 24.1203 40.3639 23.648 40.3639Z" fill="black"/>
<path d="M40.7176 52.9301C33.7851 52.9301 28.1514 47.2964 28.1514 40.3807C28.1514 33.4651 33.7851 27.8145 40.7176 27.8145C47.6502 27.8145 53.2839 33.4482 53.2839 40.3639C53.2839 47.2795 47.6502 52.9301 40.7176 52.9301ZM40.7176 29.5012C34.7297 29.5012 29.8381 34.3759 29.8381 40.3639C29.8381 46.3518 34.7128 51.2434 40.7176 51.2434C46.7224 51.2434 51.5971 46.3687 51.5971 40.3807C51.5971 34.3928 46.7224 29.5012 40.7176 29.5012Z" fill="black"/>
<path d="M45.6092 35.2867H37.2936C36.8213 35.2867 36.4502 34.9156 36.4502 34.4433C36.4502 33.9711 36.8213 33.6 37.2936 33.6H45.6092C46.0815 33.6 46.4526 33.9711 46.4526 34.4433C46.4526 34.9156 46.0815 35.2867 45.6092 35.2867Z" fill="black"/>
<path d="M45.6092 39.4529H35.8092C35.3369 39.4529 34.9658 39.0818 34.9658 38.6095C34.9658 38.1373 35.3369 37.7662 35.8092 37.7662H45.6092C46.0815 37.7662 46.4526 38.1373 46.4526 38.6095C46.4526 39.0818 46.0815 39.4529 45.6092 39.4529Z" fill="black"/>
<path d="M42.3874 48.865C42.185 48.865 41.9826 48.7976 41.8308 48.6626L35.2862 42.894C34.932 42.5903 34.8983 42.0506 35.2187 41.6964C35.5224 41.3422 36.0621 41.3084 36.4163 41.6289L42.9609 47.3976C43.3151 47.7012 43.3489 48.2409 43.0284 48.5952C42.8597 48.7807 42.6236 48.8819 42.3874 48.8819V48.865Z" fill="black"/>
<path d="M37.2933 43.0963H35.8258C35.3535 43.0963 34.9824 42.7252 34.9824 42.2529C34.9824 41.7807 35.3535 41.4096 35.8258 41.4096H37.2933C38.98 41.4096 40.3631 40.0433 40.3631 38.3397C40.3631 36.6361 38.9969 35.2698 37.2933 35.2698H35.8258C35.3535 35.2698 34.9824 34.8987 34.9824 34.4264C34.9824 33.9542 35.3535 33.5831 35.8258 33.5831H37.2933C39.9077 33.5831 42.0499 35.7084 42.0499 38.3397C42.0499 40.971 39.9246 43.0963 37.2933 43.0963Z" fill="black"/>
</svg>
