<svg width="56" height="56" viewBox="0 0 56 56" fill="none" xmlns="http://www.w3.org/2000/svg">
<path d="M49.759 32.386V43.3499C49.759 47.2294 47.8192 49.8101 43.2987 49.8101H32.9758C28.4554 49.8101 26.5156 47.2294 26.5156 43.3499V32.386C26.5156 28.5065 28.4554 25.9258 32.9758 25.9258H43.2987C47.8192 25.9258 49.759 28.5065 49.759 32.386Z" fill="#FFCB09"/>
<path d="M34.9155 51.902H21.0842C9.02398 51.902 4.09868 46.9767 4.09868 34.9165V21.0851C4.09868 9.02491 9.02398 4.09961 21.0842 4.09961H32.6047C33.077 4.09961 33.4481 4.47069 33.4481 4.94298C33.4481 5.41527 33.077 5.78636 32.6047 5.78636H21.0842C10.0866 5.78636 5.78543 10.0707 5.78543 21.0851V34.9165C5.78543 45.9309 10.0698 50.2153 21.0842 50.2153H34.9155C45.9131 50.2153 50.2143 45.9309 50.2143 34.9165V23.396C50.2143 22.9237 50.5854 22.5526 51.0577 22.5526C51.53 22.5526 51.9011 22.9237 51.9011 23.396V34.9165C51.9011 46.9767 46.9758 51.902 34.9155 51.902Z" fill="black"/>
<path d="M51.0576 24.2402H41.8311C34.4937 24.2402 31.7612 21.5077 31.7612 14.1703V4.94382C31.7612 4.60647 31.9636 4.30286 32.2841 4.16792C32.6046 4.03298 32.9588 4.11731 33.1949 4.35346L51.6311 22.7896C51.8672 23.0257 51.9516 23.3968 51.8166 23.7004C51.6817 24.0041 51.3781 24.2233 51.0407 24.2233L51.0576 24.2402ZM33.4479 6.98478V14.1703C33.4479 20.5968 35.4046 22.5535 41.8311 22.5535H49.0166L33.4479 6.98478Z" fill="black"/>
<path d="M38.6266 31.1555H16.4796C16.0073 31.1555 15.6362 30.7844 15.6362 30.3121C15.6362 29.8398 16.0073 29.4688 16.4796 29.4688H38.6266C39.0989 29.4688 39.4699 29.8398 39.4699 30.3121C39.4699 30.7844 39.0989 31.1555 38.6266 31.1555Z" fill="black"/>
<path d="M31.0025 40.3645H16.4796C16.0073 40.3645 15.6362 39.9934 15.6362 39.5211C15.6362 39.0488 16.0073 38.6777 16.4796 38.6777H31.0193C31.4916 38.6777 31.8627 39.0488 31.8627 39.5211C31.8627 39.9934 31.4916 40.3645 31.0193 40.3645H31.0025Z" fill="black"/>
</svg>
