<?xml version="1.0" encoding="UTF-8"?><svg id="Layer_1" xmlns="http://www.w3.org/2000/svg" viewBox="0 0 56 56"><g><path d="M39.35,18.63c0,4.18-3.39,7.57-7.57,7.57s-7.57-3.39-7.57-7.57,3.39-7.57,7.57-7.57,7.57,3.39,7.57,7.57Z" fill="#ffcc0b"/><path d="M13.95,53.38c-.23,0-.45-.09-.62-.26L2.88,42.68c-.16-.16-.26-.39-.26-.62s.09-.45,.26-.62l10.44-10.44s.03-.03,.05-.05c1.52-1.29,3.74-2.03,6.09-2.03,2.17,0,4.21,.63,5.76,1.76,1.04,.77,2.18,1.17,3.31,1.17h5.07c1.86,0,3.38,1.52,3.38,3.38v.24c0,1.87-1.52,3.38-3.38,3.38h-6.16c-.64,0-1.17,.52-1.17,1.16s.52,1.16,1.17,1.16h9.85l10.73-8.03c.81-.61,1.8-.85,2.8-.68,1,.17,1.86,.73,2.42,1.57,.24,.36,.18,.83-.13,1.12l-13.16,12.43c-1.33,1.26-3.07,1.95-4.9,1.95h-15.27c-1.05,0-2.04,.41-2.78,1.15l-2.42,2.43c-.16,.16-.39,.26-.62,.26Zm-9.21-11.32l9.21,9.2,1.8-1.81c1.07-1.07,2.5-1.66,4.02-1.66h15.27c1.38,0,2.7-.52,3.7-1.47l12.53-11.82c-.22-.15-.47-.25-.75-.3-.52-.09-1.04,.04-1.46,.35l-10.96,8.2c-.15,.11-.33,.17-.52,.17h-10.14c-1.61,0-2.92-1.31-2.92-2.91s1.31-2.91,2.92-2.91h6.16c.9,0,1.63-.73,1.63-1.63v-.24c0-.9-.73-1.63-1.63-1.63h-5.07c-1.51,0-3.01-.52-4.35-1.51-1.23-.9-2.95-1.42-4.72-1.42-1.92,0-3.71,.58-4.93,1.6l-9.79,9.79Z" fill="#010101"/><g><path d="M28,27.07c-6.74,0-12.23-5.48-12.23-12.22S21.26,2.62,28,2.62s12.23,5.48,12.23,12.22-5.49,12.22-12.23,12.22Zm0-22.7c-5.78,0-10.48,4.7-10.48,10.47s4.7,10.47,10.48,10.47,10.48-4.7,10.48-10.47-4.7-10.47-10.48-10.47Z" fill="#010101"/><g><path d="M32,10.67h-6.79c-.48,0-.88-.39-.88-.88s.39-.88,.88-.88h6.79c.48,0,.88,.39,.88,.88s-.39,.88-.88,.88Z" fill="#010101"/><path d="M32,14.38h-8c-.48,0-.88-.39-.88-.88s.39-.88,.88-.88h8c.48,0,.88,.39,.88,.88s-.39,.88-.88,.88Z" fill="#010101"/><path d="M29.37,22.8c-.21,0-.41-.07-.58-.22l-5.35-4.72c-.36-.32-.4-.87-.08-1.24,.32-.36,.87-.4,1.24-.08l5.35,4.72c.36,.32,.4,.87,.08,1.24-.17,.19-.41,.3-.66,.3Z" fill="#010101"/><path d="M25.21,18.08h-1.2c-.48,0-.88-.39-.88-.88s.39-.88,.88-.88h1.2c1.28,0,2.32-1.27,2.32-2.83s-1.04-2.83-2.32-2.83h-1.2c-.48,0-.88-.39-.88-.88s.39-.88,.88-.88h1.2c2.24,0,4.07,2.05,4.07,4.58s-1.83,4.58-4.07,4.58Z" fill="#010101"/></g></g></g><g opacity="0"><rect width="56" height="56" fill="none"/></g></svg>