<svg width="56" height="56" viewBox="0 0 56 56" fill="none" xmlns="http://www.w3.org/2000/svg">
<g clip-path="url(#clip0_20310_315930)">
<g clip-path="url(#clip1_20310_315930)">
<path d="M45.3248 29.0849V41.3699C45.3248 45.7099 43.1548 48.5974 38.0973 48.5974H26.5473C21.4898 48.5974 19.3198 45.7099 19.3198 41.3699V29.0849C19.3198 24.7449 21.4898 21.8574 26.5473 21.8574H38.0973C43.1548 21.8574 45.3248 24.7449 45.3248 29.0849V29.0849Z" fill="#FFCB09"/>
<path d="M18.2524 12.6175C17.7624 12.6175 17.3774 12.2325 17.3774 11.7425V5.25C17.3774 4.76 17.7624 4.375 18.2524 4.375C18.7424 4.375 19.1274 4.76 19.1274 5.25V11.7425C19.1274 12.2325 18.7424 12.6175 18.2524 12.6175Z" fill="black"/>
<path d="M35.5774 12.6175C35.0874 12.6175 34.7024 12.2325 34.7024 11.7425V5.25C34.7024 4.76 35.0874 4.375 35.5774 4.375C36.0674 4.375 36.4524 4.76 36.4524 5.25V11.7425C36.4524 12.2325 36.0674 12.6175 35.5774 12.6175Z" fill="black"/>
<path d="M19.3374 31.4825C19.1624 31.4825 18.9874 31.4475 18.8299 31.3775C18.6724 31.3075 18.5324 31.22 18.4099 31.0975C18.1649 30.8525 18.0249 30.52 18.0249 30.17C18.0249 29.995 18.0599 29.82 18.1299 29.6625C18.1824 29.505 18.2874 29.365 18.4099 29.2425C18.7599 28.875 19.3549 28.7525 19.8274 28.9625C20.0024 29.015 20.1424 29.12 20.2649 29.2425C20.3874 29.365 20.4749 29.505 20.5449 29.6625C20.6149 29.82 20.6499 29.995 20.6499 30.17C20.6499 30.52 20.5099 30.8525 20.2649 31.0975C20.1424 31.22 20.0024 31.3075 19.8274 31.3775C19.6699 31.4475 19.4949 31.4825 19.3374 31.4825V31.4825Z" fill="black"/>
<path d="M26.915 31.4824C26.74 31.4824 26.5825 31.4474 26.4075 31.3774C26.25 31.3074 26.11 31.2199 25.9875 31.0974C25.865 30.9749 25.7775 30.8349 25.7075 30.6774C25.6375 30.5024 25.6025 30.3449 25.6025 30.1699C25.6025 29.8199 25.7425 29.4874 25.9875 29.2424C26.11 29.1199 26.25 29.0149 26.4075 28.9624C26.74 28.8224 27.1075 28.8224 27.4225 28.9624C27.58 29.0149 27.72 29.1199 27.8425 29.2424C28.0875 29.4874 28.2275 29.8199 28.2275 30.1699C28.2275 30.5199 28.0875 30.8524 27.8425 31.0974C27.72 31.2199 27.58 31.3074 27.4225 31.3774C27.265 31.4474 27.09 31.4824 26.915 31.4824V31.4824Z" fill="black"/>
<path d="M19.3374 39.0599C18.9874 39.0599 18.6549 38.9199 18.4099 38.6749C18.2874 38.5524 18.1824 38.4124 18.1299 38.2549C18.0599 38.0974 18.0249 37.9224 18.0249 37.7474C18.0249 37.5724 18.0599 37.4149 18.1299 37.2399C18.1824 37.0824 18.2874 36.9424 18.4099 36.8199C18.7599 36.4524 19.3549 36.3299 19.8274 36.5399C20.0024 36.6099 20.1424 36.6974 20.2649 36.8199C20.3874 36.9424 20.4749 37.0824 20.5449 37.2399C20.6149 37.4149 20.6499 37.5724 20.6499 37.7474C20.6499 38.0974 20.5099 38.4299 20.2649 38.6749C20.1424 38.7974 20.0024 38.9024 19.8274 38.9549C19.6699 39.0249 19.5124 39.0599 19.3374 39.0599V39.0599Z" fill="black"/>
<path d="M45.3249 21.4724H8.50488C8.01488 21.4724 7.62988 21.0874 7.62988 20.5974C7.62988 20.1074 8.01488 19.7224 8.50488 19.7224H45.3249C45.8149 19.7224 46.1999 20.1074 46.1999 20.5974C46.1999 21.0874 45.8149 21.4724 45.3249 21.4724Z" fill="black"/>
<path d="M34.2124 49.4549H18.2524C10.7099 49.4549 6.54492 45.2899 6.54492 37.7474V19.3374C6.54492 11.7949 10.7099 7.62988 18.2524 7.62988H35.5774C43.1199 7.62988 47.2849 11.7949 47.2849 19.3374V36.3649C47.2849 36.7324 47.0574 37.0474 46.7249 37.1874C46.3924 37.3274 46.0074 37.2224 45.7624 36.9424C44.2749 35.2624 42.1574 34.2999 39.9174 34.2999C35.6124 34.2999 32.1299 37.7999 32.1299 42.0874C32.1299 43.5049 32.5149 44.8874 33.2499 46.0949C33.6524 46.7949 34.1774 47.4249 34.7724 47.9149C35.0524 48.1599 35.1574 48.5449 35.0349 48.8774C34.9124 49.2099 34.5799 49.4549 34.2124 49.4549V49.4549ZM18.2524 9.37988C11.6374 9.37988 8.29492 12.7224 8.29492 19.3374V37.7474C8.29492 44.3624 11.6374 47.7049 18.2524 47.7049H32.2174C32.0424 47.4774 31.9024 47.2324 31.7449 46.9874C30.8524 45.5349 30.3624 43.8374 30.3624 42.0874C30.3624 36.8199 34.6499 32.5499 39.8999 32.5499C41.9299 32.5499 43.9074 33.2149 45.5174 34.3874V19.3374C45.5174 12.7224 42.1749 9.37988 35.5599 9.37988H18.2524Z" fill="black"/>
<path d="M39.9173 51.625C37.6948 51.625 35.5423 50.855 33.8623 49.455C31.6398 47.6525 30.3623 44.9575 30.3623 42.0875C30.3623 39.2175 31.6748 36.435 33.9498 34.6325C35.6298 33.285 37.7473 32.5325 39.8998 32.5325C42.7873 32.5325 45.4823 33.81 47.2848 36.0325C48.6673 37.7125 49.4373 39.8475 49.4373 42.07C49.4373 44.7825 48.2648 47.39 46.1998 49.2275C44.4148 50.7675 42.1748 51.6075 39.8998 51.6075L39.9173 51.625ZM39.9173 34.3C38.1498 34.3 36.4173 34.9125 35.0523 36.015C33.1973 37.485 32.1298 39.7075 32.1298 42.0875C32.1298 44.4675 33.1623 46.6375 34.9823 48.1075C36.3648 49.245 38.1148 49.875 39.9173 49.875C41.7198 49.875 43.5923 49.21 45.0623 47.9325C46.7423 46.445 47.7048 44.31 47.7048 42.0875C47.7048 40.2675 47.0748 38.5175 45.9373 37.1525C44.4498 35.3325 42.2623 34.2825 39.8998 34.2825L39.9173 34.3Z" fill="black"/>
<path d="M38.8149 44.8351C38.5874 44.8351 38.3599 44.7476 38.2024 44.5726L36.3299 42.7001C35.9799 42.3501 35.9799 41.8076 36.3299 41.4576C36.6799 41.1076 37.2224 41.1076 37.5724 41.4576L38.8499 42.7351L42.2974 39.5501C42.6474 39.2176 43.2074 39.2526 43.5399 39.6026C43.8724 39.9526 43.8374 40.5126 43.4874 40.8451L39.4274 44.5901C39.2524 44.7476 39.0424 44.8176 38.8324 44.8176L38.8149 44.8351Z" fill="black"/>
</g>
</g>
<defs>
<clipPath id="clip0_20310_315930">
<rect width="56" height="56" fill="white"/>
</clipPath>
<clipPath id="clip1_20310_315930">
<rect width="56" height="56" fill="white"/>
</clipPath>
</defs>
</svg>
