<svg width="56" height="56" viewBox="0 0 56 56" fill="none" xmlns="http://www.w3.org/2000/svg">
<g clip-path="url(#clip0_1570_17896)">
<g clip-path="url(#clip1_1570_17896)">
<path d="M34.1775 35.105C34.1775 41.8075 28.735 47.25 22.0325 47.25C15.33 47.25 9.88745 41.8075 9.88745 35.105C9.88745 28.4025 15.33 22.96 22.0325 22.96C28.735 22.96 34.1775 28.4025 34.1775 35.105Z" fill="#FFCB09"/>
<path d="M49 28C49 39.6025 39.6025 49 28 49C16.3975 49 9.3275 37.3275 9.3275 37.3275M9.3275 37.3275H18.8125M9.3275 37.3275V47.8275M7 28C7 16.3975 16.3275 7 28 7C42 7 49 18.6725 49 18.6725M49 18.6725V8.1725M49 18.6725H39.6725" stroke="black" stroke-linecap="round" stroke-linejoin="round"/>
<path d="M34.0726 20.44H23.7476C23.2576 20.44 22.8726 20.055 22.8726 19.565C22.8726 19.075 23.2576 18.69 23.7476 18.69H34.0726C34.5626 18.69 34.9476 19.075 34.9476 19.565C34.9476 20.055 34.5626 20.44 34.0726 20.44Z" fill="black"/>
<path d="M34.0725 25.62H21.91C21.42 25.62 21.035 25.235 21.035 24.745C21.035 24.255 21.42 23.87 21.91 23.87H34.0725C34.5625 23.87 34.9475 24.255 34.9475 24.745C34.9475 25.235 34.5625 25.62 34.0725 25.62Z" fill="black"/>
<path d="M30.0825 37.31C29.8725 37.31 29.6625 37.24 29.505 37.0825L21.385 29.925C21.0175 29.61 20.9825 29.05 21.315 28.6825C21.63 28.315 22.19 28.28 22.5575 28.6125L30.6775 35.77C31.045 36.085 31.08 36.645 30.7475 37.0125C30.5725 37.205 30.3275 37.31 30.0825 37.31Z" fill="black"/>
<path d="M23.7651 30.135H21.9451C21.4551 30.135 21.0701 29.75 21.0701 29.26C21.0701 28.77 21.4551 28.385 21.9451 28.385H23.7651C25.9526 28.385 27.7376 26.6 27.7376 24.4125C27.7376 22.225 25.9526 20.44 23.7651 20.44H21.9451C21.4551 20.44 21.0701 20.055 21.0701 19.565C21.0701 19.075 21.4551 18.69 21.9451 18.69H23.7651C26.9151 18.69 29.4876 21.2625 29.4876 24.4125C29.4876 27.5625 26.9151 30.135 23.7651 30.135Z" fill="black"/>
</g>
</g>
<defs>
<clipPath id="clip0_1570_17896">
<rect width="56" height="56" fill="white"/>
</clipPath>
<clipPath id="clip1_1570_17896">
<rect width="56" height="56" fill="white"/>
</clipPath>
</defs>
</svg>
