<svg xmlns="http://www.w3.org/2000/svg" xmlns:xlink="http://www.w3.org/1999/xlink" width="1282" zoomAndPan="magnify" viewBox="0 0 961.5 647.999998" height="864" preserveAspectRatio="xMidYMid meet" version="1.0"><defs><clipPath id="2058931d96"><path d="M 317 0.167969 L 432 0.167969 L 432 98 L 317 98 Z M 317 0.167969 " clip-rule="nonzero"/></clipPath><clipPath id="eb82d23768"><path d="M 433 471 L 707 471 L 707 647.832031 L 433 647.832031 Z M 433 471 " clip-rule="nonzero"/></clipPath><clipPath id="6cd4ac1b6c"><path d="M 496 552 L 644 552 L 644 647.832031 L 496 647.832031 Z M 496 552 " clip-rule="nonzero"/></clipPath><clipPath id="b6a0ab8d63"><path d="M 420 646 L 444 646 L 444 647.832031 L 420 647.832031 Z M 420 646 " clip-rule="nonzero"/></clipPath><clipPath id="e62abe8d2b"><path d="M 456 646 L 484 646 L 484 647.832031 L 456 647.832031 Z M 456 646 " clip-rule="nonzero"/></clipPath><clipPath id="62bafa30f8"><path d="M 681 646 L 723 646 L 723 647.832031 L 681 647.832031 Z M 681 646 " clip-rule="nonzero"/></clipPath><clipPath id="146963ce68"><path d="M 735 646 L 754 646 L 754 647.832031 L 735 647.832031 Z M 735 646 " clip-rule="nonzero"/></clipPath></defs><path fill="#eef4ff" d="M 778.628906 393.136719 C 772.820312 430.261719 755.644531 467.890625 723.4375 487.335938 C 699.945312 501.605469 671.277344 504.382812 643.742188 504.382812 C 616.210938 504.382812 588.550781 501.859375 561.394531 506.78125 C 543.207031 510.066406 521.988281 514.613281 510.875 529.257812 C 492.308594 553.757812 468.1875 576.234375 438 581.789062 C 407.816406 587.347656 376.617188 582.925781 346.433594 577.496094 C 317.636719 572.445312 288.210938 566.257812 263.453125 550.726562 C 238.699219 535.195312 218.996094 508.296875 220.007812 479.128906 C 221.269531 439.097656 259.285156 406.898438 259.539062 366.871094 C 259.917969 326.335938 222.914062 296.789062 202.957031 261.558594 C 180.601562 221.78125 180.601562 170.765625 202.703125 131.117188 C 224.808594 91.464844 268.378906 64.820312 313.722656 63.054688 C 382.808594 60.402344 442.546875 110.40625 510.117188 125.433594 C 539.546875 132 569.984375 131.746094 599.539062 137.429688 C 655.992188 148.414062 707.648438 182.003906 740.742188 229.105469 C 773.703125 276.203125 787.597656 336.3125 778.628906 393.136719 Z M 778.628906 393.136719 " fill-opacity="1" fill-rule="nonzero"/><path stroke-linecap="round" transform="matrix(1.262996, 0, 0, 1.262747, 41.672592, -117.89846)" fill-opacity="1" fill="#ffffff" fill-rule="nonzero" stroke-linejoin="round" d="M 368.400557 381.299045 C 354.801318 381.299045 343.800069 370.199736 343.800069 356.699906 L 343.800069 157.200024 C 343.800069 143.601204 354.900289 132.600885 368.400557 132.600885 L 567.799359 132.600885 C 581.398598 132.600885 592.399847 143.700194 592.399847 157.200024 L 592.399847 356.600916 C 592.399847 370.199736 581.299627 381.200055 567.799359 381.200055 L 368.400557 381.200055 Z M 368.400557 381.299045 " stroke="#112544" stroke-width="1.5" stroke-opacity="1" stroke-miterlimit="10"/><path stroke-linecap="round" transform="matrix(1.262996, 0, 0, 1.262747, 41.672592, -117.89846)" fill-opacity="1" fill="#e1e5ff" fill-rule="nonzero" stroke-linejoin="round" d="M 580.399609 157.200024 L 580.399609 356.600916 C 580.399609 363.6014 574.699496 369.20055 567.799359 369.20055 L 368.400557 369.20055 C 361.401449 369.20055 355.800307 363.499316 355.800307 356.600916 L 355.800307 157.200024 C 355.800307 150.199539 361.50042 144.600389 368.400557 144.600389 L 567.799359 144.600389 C 574.798467 144.501399 580.399609 150.199539 580.399609 157.200024 Z M 580.399609 157.200024 " stroke="#112544" stroke-width="1.5" stroke-opacity="1" stroke-miterlimit="10"/><path fill="#ccd2ff" d="M 747.8125 282.898438 L 747.8125 320.527344 C 747.8125 324.0625 744.910156 326.96875 741.371094 326.96875 L 518.199219 326.96875 C 514.664062 326.96875 511.757812 324.0625 511.757812 320.527344 L 511.757812 282.898438 C 511.757812 279.363281 514.664062 276.457031 518.199219 276.457031 L 741.371094 276.457031 C 744.910156 276.582031 747.8125 279.363281 747.8125 282.898438 Z M 747.8125 282.898438 " fill-opacity="1" fill-rule="nonzero"/><path stroke-linecap="round" transform="matrix(1.262996, 0, 0, 1.262747, 41.672592, -117.89846)" fill-opacity="1" fill="#ffffff" fill-rule="nonzero" stroke-linejoin="round" d="M 562.900293 313.29876 L 562.900293 343.101087 C 562.900293 345.900662 560.599216 348.199097 557.800192 348.199097 L 381.099778 348.199097 C 378.300754 348.199097 375.999677 345.900662 375.999677 343.101087 L 375.999677 313.29876 C 375.999677 310.499185 378.300754 308.200749 381.099778 308.200749 L 557.800192 308.200749 C 560.599216 308.200749 562.900293 310.499185 562.900293 313.29876 Z M 562.900293 313.29876 " stroke="#112544" stroke-width="1.5" stroke-opacity="1" stroke-miterlimit="10"/><path fill="#ccd2ff" d="M 747.8125 208.902344 L 747.8125 246.53125 C 747.8125 250.066406 744.910156 252.96875 741.371094 252.96875 L 518.199219 252.96875 C 514.664062 252.96875 511.757812 250.066406 511.757812 246.53125 L 511.757812 208.902344 C 511.757812 205.363281 514.664062 202.460938 518.199219 202.460938 L 741.371094 202.460938 C 744.910156 202.460938 747.8125 205.238281 747.8125 208.902344 Z M 747.8125 208.902344 " fill-opacity="1" fill-rule="nonzero"/><path stroke-linecap="round" transform="matrix(1.262996, 0, 0, 1.262747, 41.672592, -117.89846)" fill-opacity="1" fill="#ffffff" fill-rule="nonzero" stroke-linejoin="round" d="M 562.900293 254.600487 L 562.900293 284.399721 C 562.900293 287.199296 560.599216 289.500825 557.800192 289.500825 L 381.099778 289.500825 C 378.300754 289.500825 375.999677 287.199296 375.999677 284.399721 L 375.999677 254.600487 C 375.999677 251.800912 378.300754 249.499383 381.099778 249.499383 L 557.800192 249.499383 C 560.599216 249.499383 562.900293 251.800912 562.900293 254.600487 Z M 562.900293 254.600487 " stroke="#112544" stroke-width="1.5" stroke-opacity="1" stroke-miterlimit="10"/><path fill="#ccd2ff" d="M 674.433594 135.03125 C 674.433594 160.917969 653.46875 182.003906 627.449219 182.003906 C 601.558594 182.003906 580.464844 161.042969 580.464844 135.03125 C 580.464844 109.015625 601.433594 88.054688 627.449219 88.054688 C 653.339844 88.054688 674.433594 109.144531 674.433594 135.03125 Z M 674.433594 135.03125 " fill-opacity="1" fill-rule="nonzero"/><path stroke-linecap="round" transform="matrix(1.262996, 0, 0, 1.262747, 41.672592, -117.89846)" fill-opacity="1" fill="#ffffff" fill-rule="nonzero" stroke-linejoin="round" d="M 505.29915 196.199187 C 505.29915 216.6995 488.699851 233.401053 468.101505 233.401053 C 447.500065 233.401053 430.900766 216.798491 430.900766 196.199187 C 430.900766 175.599882 447.500065 159.000413 468.101505 159.000413 C 488.699851 159.000413 505.29915 175.599882 505.29915 196.199187 Z M 505.29915 196.199187 " stroke="#112544" stroke-width="1.5" stroke-opacity="1" stroke-miterlimit="10"/><path fill="#efa130" d="M 643.617188 112.175781 C 643.617188 118.109375 638.816406 122.90625 632.882812 122.90625 C 629.472656 122.90625 626.441406 121.265625 624.417969 118.867188 C 622.902344 117.097656 622.019531 114.699219 622.019531 112.175781 C 622.019531 106.238281 626.820312 101.441406 632.753906 101.441406 C 633.890625 101.441406 635.027344 101.566406 636.039062 101.945312 C 640.457031 103.335938 643.617188 107.375 643.617188 112.175781 Z M 643.617188 112.175781 " fill-opacity="1" fill-rule="nonzero"/><path fill="#ffc25e" d="M 638.4375 108.636719 C 638.4375 114.574219 633.640625 119.371094 627.703125 119.371094 C 626.566406 119.371094 625.429688 119.246094 624.417969 118.867188 C 622.902344 117.097656 622.019531 114.699219 622.019531 112.175781 C 622.019531 106.238281 626.820312 101.441406 632.753906 101.441406 C 633.890625 101.441406 635.027344 101.566406 636.039062 101.945312 C 637.554688 103.839844 638.4375 106.113281 638.4375 108.636719 Z M 638.4375 108.636719 " fill-opacity="1" fill-rule="nonzero"/><path stroke-linecap="round" transform="matrix(1.262996, 0, 0, 1.262747, 41.672592, -117.89846)" fill="none" stroke-linejoin="round" d="M 476.600642 182.201311 C 476.600642 186.900267 472.799536 190.699027 468.101505 190.699027 C 463.40038 190.699027 459.599274 186.900267 459.599274 182.201311 C 459.599274 177.499263 463.40038 173.700502 468.101505 173.700502 C 472.799536 173.700502 476.600642 177.499263 476.600642 182.201311 Z M 476.600642 182.201311 " stroke="#112544" stroke-width="1.5" stroke-opacity="1" stroke-miterlimit="10"/><path fill="#efa130" d="M 656.878906 154.351562 L 608.757812 154.351562 C 607.117188 154.351562 605.851562 152.960938 605.980469 151.320312 C 605.980469 150.8125 606.105469 150.308594 606.230469 149.929688 C 608.378906 137.304688 619.492188 127.578125 632.753906 127.578125 C 636.039062 127.578125 639.195312 128.210938 642.101562 129.222656 C 651.445312 132.628906 658.394531 141.089844 659.53125 151.320312 C 659.78125 152.835938 658.519531 154.351562 656.878906 154.351562 Z M 656.878906 154.351562 " fill-opacity="1" fill-rule="nonzero"/><path fill="#ffc25e" d="M 649.046875 149.804688 L 606.230469 149.804688 C 608.378906 137.175781 619.492188 127.453125 632.753906 127.453125 C 636.039062 127.453125 639.195312 128.085938 642.101562 129.09375 C 647.277344 133.386719 650.816406 139.574219 651.699219 146.648438 C 651.953125 148.414062 650.6875 149.804688 649.046875 149.804688 Z M 649.046875 149.804688 " fill-opacity="1" fill-rule="nonzero"/><path stroke-linecap="round" transform="matrix(1.262996, 0, 0, 1.262747, 41.672592, -117.89846)" fill="none" stroke-linejoin="round" d="M 487.100851 215.601324 C 488.399846 215.601324 489.398834 214.500055 489.299863 213.200805 C 488.000869 202.599541 479.00069 194.398797 468.101505 194.398797 C 457.199226 194.398797 448.199048 202.599541 446.900053 213.200805 C 446.699018 214.500055 447.800071 215.601324 449.099066 215.601324 Z M 487.100851 215.601324 " stroke="#112544" stroke-width="1.5" stroke-opacity="1" stroke-miterlimit="10"/><path fill="#757bff" d="M 554.703125 222.410156 C 554.703125 228.472656 549.777344 233.273438 543.839844 233.273438 C 540.429688 233.273438 537.273438 231.628906 535.25 229.105469 C 533.734375 227.210938 532.851562 224.8125 532.851562 222.285156 C 532.851562 216.222656 537.777344 211.300781 543.839844 211.300781 C 544.976562 211.300781 546.113281 211.425781 547.125 211.804688 C 551.542969 213.445312 554.703125 217.613281 554.703125 222.410156 Z M 554.703125 222.410156 " fill-opacity="1" fill-rule="nonzero"/><path fill="#8d95ff" d="M 549.523438 218.875 C 549.523438 224.9375 544.597656 229.863281 538.660156 229.863281 C 537.523438 229.863281 536.386719 229.734375 535.378906 229.355469 C 533.863281 227.464844 532.976562 225.0625 532.976562 222.539062 C 532.976562 216.476562 537.902344 211.550781 543.964844 211.550781 C 545.101562 211.550781 546.238281 211.679688 547.25 212.058594 C 548.640625 213.824219 549.523438 216.222656 549.523438 218.875 Z M 549.523438 218.875 " fill-opacity="1" fill-rule="nonzero"/><path stroke-linecap="round" transform="matrix(1.262996, 0, 0, 1.262747, 41.672592, -117.89846)" fill="none" stroke-linejoin="round" d="M 406.201307 269.498557 C 406.201307 274.299597 402.30123 278.200441 397.600106 278.200441 C 392.80001 278.200441 388.998904 274.299597 388.998904 269.498557 C 388.998904 264.700612 392.898981 260.898758 397.600106 260.898758 C 402.30123 260.898758 406.201307 264.700612 406.201307 269.498557 Z M 406.201307 269.498557 " stroke="#112544" stroke-width="1.5" stroke-opacity="1" stroke-miterlimit="10"/><path fill="#757bff" d="M 591.074219 222.410156 C 591.074219 228.472656 586.148438 233.273438 580.214844 233.273438 C 576.804688 233.273438 573.644531 231.628906 571.625 229.105469 C 570.109375 227.210938 569.226562 224.8125 569.226562 222.285156 C 569.226562 216.222656 574.152344 211.300781 580.214844 211.300781 C 581.351562 211.300781 582.488281 211.425781 583.496094 211.804688 C 587.917969 213.445312 591.074219 217.613281 591.074219 222.410156 Z M 591.074219 222.410156 " fill-opacity="1" fill-rule="nonzero"/><path fill="#8d95ff" d="M 585.898438 218.875 C 585.898438 224.9375 580.972656 229.863281 575.035156 229.863281 C 573.898438 229.863281 572.761719 229.734375 571.75 229.355469 C 570.234375 227.464844 569.351562 225.0625 569.351562 222.539062 C 569.351562 216.476562 574.277344 211.550781 580.339844 211.550781 C 581.476562 211.550781 582.613281 211.679688 583.625 212.058594 C 585.011719 213.824219 585.898438 216.222656 585.898438 218.875 Z M 585.898438 218.875 " fill-opacity="1" fill-rule="nonzero"/><path stroke-linecap="round" transform="matrix(1.262996, 0, 0, 1.262747, 41.672592, -117.89846)" fill="none" stroke-linejoin="round" d="M 434.998786 269.498557 C 434.998786 274.299597 431.098709 278.200441 426.400677 278.200441 C 421.600582 278.200441 417.799476 274.299597 417.799476 269.498557 C 417.799476 264.700612 421.699553 260.898758 426.400677 260.898758 C 431.200772 260.898758 434.998786 264.700612 434.998786 269.498557 Z M 434.998786 269.498557 " stroke="#112544" stroke-width="1.5" stroke-opacity="1" stroke-miterlimit="10"/><path fill="#757bff" d="M 627.578125 222.410156 C 627.578125 228.472656 622.652344 233.273438 616.714844 233.273438 C 613.304688 233.273438 610.148438 231.628906 608.125 229.105469 C 606.609375 227.210938 605.726562 224.8125 605.726562 222.285156 C 605.726562 216.222656 610.652344 211.300781 616.714844 211.300781 C 617.851562 211.300781 618.988281 211.425781 620 211.804688 C 624.417969 213.445312 627.578125 217.613281 627.578125 222.410156 Z M 627.578125 222.410156 " fill-opacity="1" fill-rule="nonzero"/><path fill="#8d95ff" d="M 622.273438 218.875 C 622.273438 224.9375 617.347656 229.863281 611.410156 229.863281 C 610.273438 229.863281 609.136719 229.734375 608.125 229.355469 C 606.609375 227.464844 605.726562 225.0625 605.726562 222.539062 C 605.726562 216.476562 610.652344 211.550781 616.714844 211.550781 C 617.851562 211.550781 618.988281 211.679688 620 212.058594 C 621.386719 213.824219 622.273438 216.222656 622.273438 218.875 Z M 622.273438 218.875 " fill-opacity="1" fill-rule="nonzero"/><path stroke-linecap="round" transform="matrix(1.262996, 0, 0, 1.262747, 41.672592, -117.89846)" fill="none" stroke-linejoin="round" d="M 463.901421 269.498557 C 463.901421 274.299597 460.001344 278.200441 455.30022 278.200441 C 450.500124 278.200441 446.699018 274.299597 446.699018 269.498557 C 446.699018 264.700612 450.599095 260.898758 455.30022 260.898758 C 460.001344 260.898758 463.901421 264.700612 463.901421 269.498557 Z M 463.901421 269.498557 " stroke="#112544" stroke-width="1.5" stroke-opacity="1" stroke-miterlimit="10"/><path fill="#757bff" d="M 663.949219 222.410156 C 663.949219 228.472656 659.023438 233.273438 653.089844 233.273438 C 649.679688 233.273438 646.519531 231.628906 644.5 229.105469 C 642.984375 227.210938 642.101562 224.8125 642.101562 222.285156 C 642.101562 216.222656 647.027344 211.300781 653.089844 211.300781 C 654.226562 211.300781 655.363281 211.425781 656.371094 211.804688 C 660.792969 213.445312 663.949219 217.613281 663.949219 222.410156 Z M 663.949219 222.410156 " fill-opacity="1" fill-rule="nonzero"/><path fill="#8d95ff" d="M 658.773438 218.875 C 658.773438 224.9375 653.847656 229.863281 647.910156 229.863281 C 646.773438 229.863281 645.636719 229.734375 644.625 229.355469 C 643.109375 227.464844 642.226562 225.0625 642.226562 222.539062 C 642.226562 216.476562 647.152344 211.550781 653.214844 211.550781 C 654.351562 211.550781 655.488281 211.679688 656.5 212.058594 C 657.886719 213.824219 658.773438 216.222656 658.773438 218.875 Z M 658.773438 218.875 " fill-opacity="1" fill-rule="nonzero"/><path stroke-linecap="round" transform="matrix(1.262996, 0, 0, 1.262747, 41.672592, -117.89846)" fill="none" stroke-linejoin="round" d="M 492.6989 269.498557 C 492.6989 274.299597 488.798823 278.200441 484.100791 278.200441 C 479.300696 278.200441 475.49959 274.299597 475.49959 269.498557 C 475.49959 264.700612 479.399667 260.898758 484.100791 260.898758 C 488.900886 260.898758 492.6989 264.700612 492.6989 269.498557 Z M 492.6989 269.498557 " stroke="#112544" stroke-width="1.5" stroke-opacity="1" stroke-miterlimit="10"/><path fill="#757bff" d="M 700.449219 222.410156 C 700.449219 228.472656 695.527344 233.273438 689.589844 233.273438 C 686.179688 233.273438 683.023438 231.628906 681 229.105469 C 679.484375 227.210938 678.601562 224.8125 678.601562 222.285156 C 678.601562 216.222656 683.527344 211.300781 689.589844 211.300781 C 690.726562 211.300781 691.863281 211.425781 692.875 211.804688 C 697.167969 213.445312 700.449219 217.613281 700.449219 222.410156 Z M 700.449219 222.410156 " fill-opacity="1" fill-rule="nonzero"/><path fill="#8d95ff" d="M 695.148438 218.875 C 695.148438 224.9375 690.222656 229.863281 684.285156 229.863281 C 683.148438 229.863281 682.011719 229.734375 681 229.355469 C 679.484375 227.464844 678.601562 225.0625 678.601562 222.539062 C 678.601562 216.476562 683.527344 211.550781 689.589844 211.550781 C 690.726562 211.550781 691.863281 211.679688 692.875 212.058594 C 694.261719 213.824219 695.148438 216.222656 695.148438 218.875 Z M 695.148438 218.875 " fill-opacity="1" fill-rule="nonzero"/><path stroke-linecap="round" transform="matrix(1.262996, 0, 0, 1.262747, 41.672592, -117.89846)" fill="none" stroke-linejoin="round" d="M 521.598442 269.498557 C 521.598442 274.299597 517.701458 278.200441 513.000334 278.200441 C 508.200238 278.200441 504.399132 274.299597 504.399132 269.498557 C 504.399132 264.700612 508.299209 260.898758 513.000334 260.898758 C 517.701458 260.898758 521.598442 264.700612 521.598442 269.498557 Z M 521.598442 269.498557 " stroke="#112544" stroke-width="1.5" stroke-opacity="1" stroke-miterlimit="10"/><path fill="#757bff" d="M 554.703125 296.535156 C 554.703125 302.597656 549.777344 307.394531 543.839844 307.394531 C 540.429688 307.394531 537.273438 305.753906 535.25 303.226562 C 533.734375 301.332031 532.851562 298.933594 532.851562 296.410156 C 532.851562 290.347656 537.777344 285.421875 543.839844 285.421875 C 544.976562 285.421875 546.113281 285.550781 547.125 285.929688 C 551.542969 287.570312 554.703125 291.609375 554.703125 296.535156 Z M 554.703125 296.535156 " fill-opacity="1" fill-rule="nonzero"/><path fill="#8d95ff" d="M 549.523438 292.875 C 549.523438 298.933594 544.597656 303.859375 538.660156 303.859375 C 537.523438 303.859375 536.386719 303.734375 535.378906 303.355469 C 533.863281 301.460938 532.976562 299.0625 532.976562 296.535156 C 532.976562 290.472656 537.902344 285.550781 543.964844 285.550781 C 545.101562 285.550781 546.238281 285.675781 547.25 286.054688 C 548.640625 287.949219 549.523438 290.347656 549.523438 292.875 Z M 549.523438 292.875 " fill-opacity="1" fill-rule="nonzero"/><path stroke-linecap="round" transform="matrix(1.262996, 0, 0, 1.262747, 41.672592, -117.89846)" fill="none" stroke-linejoin="round" d="M 406.201307 328.199923 C 406.201307 333.000962 402.30123 336.898713 397.600106 336.898713 C 392.80001 336.898713 388.998904 333.000962 388.998904 328.199923 C 388.998904 323.398884 392.898981 319.600123 397.600106 319.600123 C 402.30123 319.600123 406.201307 323.398884 406.201307 328.199923 Z M 406.201307 328.199923 " stroke="#112544" stroke-width="1.5" stroke-opacity="1" stroke-miterlimit="10"/><path fill="#757bff" d="M 591.074219 296.535156 C 591.074219 302.597656 586.148438 307.394531 580.214844 307.394531 C 576.804688 307.394531 573.644531 305.753906 571.625 303.226562 C 570.109375 301.332031 569.226562 298.933594 569.226562 296.410156 C 569.226562 290.347656 574.152344 285.421875 580.214844 285.421875 C 581.351562 285.421875 582.488281 285.550781 583.496094 285.929688 C 587.917969 287.570312 591.074219 291.609375 591.074219 296.535156 Z M 591.074219 296.535156 " fill-opacity="1" fill-rule="nonzero"/><path fill="#8d95ff" d="M 585.898438 292.875 C 585.898438 298.933594 580.972656 303.859375 575.035156 303.859375 C 573.898438 303.859375 572.761719 303.734375 571.75 303.355469 C 570.234375 301.460938 569.351562 299.0625 569.351562 296.535156 C 569.351562 290.472656 574.277344 285.550781 580.339844 285.550781 C 581.476562 285.550781 582.613281 285.675781 583.625 286.054688 C 585.011719 287.949219 585.898438 290.347656 585.898438 292.875 Z M 585.898438 292.875 " fill-opacity="1" fill-rule="nonzero"/><path stroke-linecap="round" transform="matrix(1.262996, 0, 0, 1.262747, 41.672592, -117.89846)" fill="none" stroke-linejoin="round" d="M 434.998786 328.199923 C 434.998786 333.000962 431.098709 336.898713 426.400677 336.898713 C 421.600582 336.898713 417.799476 333.000962 417.799476 328.199923 C 417.799476 323.398884 421.699553 319.600123 426.400677 319.600123 C 431.200772 319.600123 434.998786 323.398884 434.998786 328.199923 Z M 434.998786 328.199923 " stroke="#112544" stroke-width="1.5" stroke-opacity="1" stroke-miterlimit="10"/><path fill="#757bff" d="M 627.578125 296.535156 C 627.578125 302.597656 622.652344 307.394531 616.714844 307.394531 C 613.304688 307.394531 610.148438 305.753906 608.125 303.226562 C 606.609375 301.332031 605.726562 298.933594 605.726562 296.410156 C 605.726562 290.347656 610.652344 285.421875 616.714844 285.421875 C 617.851562 285.421875 618.988281 285.550781 620 285.929688 C 624.417969 287.570312 627.578125 291.609375 627.578125 296.535156 Z M 627.578125 296.535156 " fill-opacity="1" fill-rule="nonzero"/><path fill="#8d95ff" d="M 622.273438 292.875 C 622.273438 298.933594 617.347656 303.859375 611.410156 303.859375 C 610.273438 303.859375 609.136719 303.734375 608.125 303.355469 C 606.609375 301.460938 605.726562 299.0625 605.726562 296.535156 C 605.726562 290.472656 610.652344 285.550781 616.714844 285.550781 C 617.851562 285.550781 618.988281 285.675781 620 286.054688 C 621.386719 287.949219 622.273438 290.347656 622.273438 292.875 Z M 622.273438 292.875 " fill-opacity="1" fill-rule="nonzero"/><path stroke-linecap="round" transform="matrix(1.262996, 0, 0, 1.262747, 41.672592, -117.89846)" fill="none" stroke-linejoin="round" d="M 463.901421 328.199923 C 463.901421 333.000962 460.001344 336.898713 455.30022 336.898713 C 450.500124 336.898713 446.699018 333.000962 446.699018 328.199923 C 446.699018 323.398884 450.599095 319.600123 455.30022 319.600123 C 460.001344 319.600123 463.901421 323.398884 463.901421 328.199923 Z M 463.901421 328.199923 " stroke="#112544" stroke-width="1.5" stroke-opacity="1" stroke-miterlimit="10"/><path fill="#757bff" d="M 663.949219 296.535156 C 663.949219 302.597656 659.023438 307.394531 653.089844 307.394531 C 649.679688 307.394531 646.519531 305.753906 644.5 303.226562 C 642.984375 301.332031 642.101562 298.933594 642.101562 296.410156 C 642.101562 290.347656 647.027344 285.421875 653.089844 285.421875 C 654.226562 285.421875 655.363281 285.550781 656.371094 285.929688 C 660.792969 287.570312 663.949219 291.609375 663.949219 296.535156 Z M 663.949219 296.535156 " fill-opacity="1" fill-rule="nonzero"/><path fill="#8d95ff" d="M 658.773438 292.875 C 658.773438 298.933594 653.847656 303.859375 647.910156 303.859375 C 646.773438 303.859375 645.636719 303.734375 644.625 303.355469 C 643.109375 301.460938 642.226562 299.0625 642.226562 296.535156 C 642.226562 290.472656 647.152344 285.550781 653.214844 285.550781 C 654.351562 285.550781 655.488281 285.675781 656.5 286.054688 C 657.886719 287.949219 658.773438 290.347656 658.773438 292.875 Z M 658.773438 292.875 " fill-opacity="1" fill-rule="nonzero"/><path stroke-linecap="round" transform="matrix(1.262996, 0, 0, 1.262747, 41.672592, -117.89846)" fill="none" stroke-linejoin="round" d="M 492.6989 328.199923 C 492.6989 333.000962 488.798823 336.898713 484.100791 336.898713 C 479.300696 336.898713 475.49959 333.000962 475.49959 328.199923 C 475.49959 323.398884 479.399667 319.600123 484.100791 319.600123 C 488.900886 319.600123 492.6989 323.398884 492.6989 328.199923 Z M 492.6989 328.199923 " stroke="#112544" stroke-width="1.5" stroke-opacity="1" stroke-miterlimit="10"/><path fill="#757bff" d="M 700.449219 296.535156 C 700.449219 302.597656 695.527344 307.394531 689.589844 307.394531 C 686.179688 307.394531 683.023438 305.753906 681 303.226562 C 679.484375 301.332031 678.601562 298.933594 678.601562 296.410156 C 678.601562 290.347656 683.527344 285.421875 689.589844 285.421875 C 690.726562 285.421875 691.863281 285.550781 692.875 285.929688 C 697.167969 287.570312 700.449219 291.609375 700.449219 296.535156 Z M 700.449219 296.535156 " fill-opacity="1" fill-rule="nonzero"/><path fill="#8d95ff" d="M 695.148438 292.875 C 695.148438 298.933594 690.222656 303.859375 684.285156 303.859375 C 683.148438 303.859375 682.011719 303.734375 681 303.355469 C 679.484375 301.460938 678.601562 299.0625 678.601562 296.535156 C 678.601562 290.472656 683.527344 285.550781 689.589844 285.550781 C 690.726562 285.550781 691.863281 285.675781 692.875 286.054688 C 694.261719 287.949219 695.148438 290.347656 695.148438 292.875 Z M 695.148438 292.875 " fill-opacity="1" fill-rule="nonzero"/><path stroke-linecap="round" transform="matrix(1.262996, 0, 0, 1.262747, 41.672592, -117.89846)" fill="none" stroke-linejoin="round" d="M 521.598442 328.199923 C 521.598442 333.000962 517.701458 336.898713 513.000334 336.898713 C 508.200238 336.898713 504.399132 333.000962 504.399132 328.199923 C 504.399132 323.398884 508.299209 319.600123 513.000334 319.600123 C 517.701458 319.600123 521.598442 323.398884 521.598442 328.199923 Z M 521.598442 328.199923 " stroke="#112544" stroke-width="1.5" stroke-opacity="1" stroke-miterlimit="10"/><path fill="#ffffff" d="M 430.171875 13.554688 L 430.171875 84.140625 C 430.171875 90.960938 424.613281 96.515625 417.792969 96.515625 L 330.394531 96.515625 C 323.574219 96.515625 318.015625 90.960938 318.015625 84.140625 L 318.015625 13.554688 C 318.015625 6.734375 323.574219 1.179688 330.394531 1.179688 L 417.792969 1.179688 C 424.738281 1.179688 430.171875 6.734375 430.171875 13.554688 Z M 430.171875 13.554688 " fill-opacity="1" fill-rule="nonzero"/><path fill="#ccd2ff" d="M 430.171875 13.554688 L 430.171875 84.140625 C 430.171875 90.960938 424.613281 96.515625 417.792969 96.515625 L 330.394531 96.515625 C 325.71875 96.515625 321.550781 93.863281 319.53125 89.949219 C 321.171875 90.707031 322.941406 91.085938 324.710938 91.085938 L 412.109375 91.085938 C 418.929688 91.085938 424.488281 85.53125 424.488281 78.710938 L 424.488281 8.25 C 424.488281 6.101562 423.980469 4.210938 422.972656 2.441406 C 427.265625 4.335938 430.171875 8.628906 430.171875 13.554688 Z M 430.171875 13.554688 " fill-opacity="1" fill-rule="nonzero"/><g clip-path="url(#2058931d96)"><path stroke-linecap="round" transform="matrix(1.262996, 0, 0, 1.262747, 41.672592, -117.89846)" fill="none" stroke-linejoin="round" d="M 307.601413 104.100901 L 307.601413 159.999599 C 307.601413 165.400768 303.200294 169.799658 297.800187 169.799658 L 228.600876 169.799658 C 223.200769 169.799658 218.799651 165.400768 218.799651 159.999599 L 218.799651 104.100901 C 218.799651 98.699732 223.200769 94.300842 228.600876 94.300842 L 297.800187 94.300842 C 303.299265 94.300842 307.601413 98.699732 307.601413 104.100901 Z M 307.601413 104.100901 " stroke="#112544" stroke-width="1.5" stroke-opacity="1" stroke-miterlimit="10"/></g><path fill="#ffffff" d="M 807.046875 440.363281 L 807.046875 510.949219 C 807.046875 517.769531 801.492188 523.324219 794.671875 523.324219 L 707.269531 523.324219 C 700.449219 523.324219 694.894531 517.769531 694.894531 510.949219 L 694.894531 440.363281 C 694.894531 433.542969 700.453125 427.988281 707.269531 427.988281 L 794.671875 427.988281 C 801.492188 428.113281 807.046875 433.542969 807.046875 440.363281 Z M 807.046875 440.363281 " fill-opacity="1" fill-rule="nonzero"/><path fill="#ccd2ff" d="M 807.046875 440.363281 L 807.046875 510.949219 C 807.046875 517.769531 801.492188 523.324219 794.671875 523.324219 L 707.269531 523.324219 C 702.597656 523.324219 698.429688 520.671875 696.410156 516.757812 C 698.050781 517.515625 699.820312 517.894531 701.585938 517.894531 L 788.988281 517.894531 C 795.808594 517.894531 801.363281 512.339844 801.363281 505.519531 L 801.363281 434.933594 C 801.363281 432.785156 800.859375 430.890625 799.847656 429.125 C 804.144531 431.144531 807.046875 435.4375 807.046875 440.363281 Z M 807.046875 440.363281 " fill-opacity="1" fill-rule="nonzero"/><path stroke-linecap="round" transform="matrix(1.262996, 0, 0, 1.262747, 41.672592, -117.89846)" fill="none" stroke-linejoin="round" d="M 605.999086 442.100866 L 605.999086 497.999563 C 605.999086 503.400732 601.601061 507.799622 596.200954 507.799622 L 526.99855 507.799622 C 521.598442 507.799622 517.200417 503.400732 517.200417 497.999563 L 517.200417 442.100866 C 517.200417 436.699697 521.601535 432.300806 526.99855 432.300806 L 596.200954 432.300806 C 601.601061 432.399797 605.999086 436.699697 605.999086 442.100866 Z M 605.999086 442.100866 " stroke="#112544" stroke-width="1.5" stroke-opacity="1" stroke-miterlimit="10"/><path stroke-linecap="round" transform="matrix(1.262996, 0, 0, 1.262747, 41.672592, -117.89846)" fill="none" stroke-linejoin="round" d="M 263.299503 169.799658 L 263.299503 227.300764 L 343.701098 227.300764 " stroke="#112544" stroke-width="1.5" stroke-opacity="1" stroke-miterlimit="10"/><path stroke-linecap="round" transform="matrix(1.262996, 0, 0, 1.262747, 41.672592, -117.89846)" fill="none" stroke-linejoin="round" d="M 517.299388 470.498765 L 461.80138 470.498765 L 461.80138 382.001259 " stroke="#112544" stroke-width="1.5" stroke-opacity="1" stroke-miterlimit="10"/><path fill="#e1e5ff" d="M 360.578125 71.386719 C 357.042969 69.242188 354.390625 66.460938 352.371094 63.054688 C 350.476562 59.515625 349.464844 55.855469 349.464844 51.816406 C 349.464844 46.890625 350.726562 42.21875 353.253906 37.925781 C 355.78125 33.632812 359.191406 30.222656 363.484375 27.570312 C 367.777344 25.042969 372.449219 23.65625 377.375 23.65625 C 381.921875 23.65625 386.089844 24.664062 389.878906 26.558594 C 393.667969 28.453125 396.828125 31.230469 399.101562 34.640625 C 401.375 38.050781 402.511719 41.964844 402.511719 46.386719 C 402.511719 49.164062 402.132812 51.816406 401.246094 54.214844 C 400.363281 56.738281 399.101562 58.761719 397.207031 60.273438 C 395.4375 61.917969 393.039062 62.675781 390.257812 62.675781 C 388.113281 62.675781 386.34375 62.167969 385.082031 61.285156 C 383.816406 60.273438 383.058594 59.140625 382.808594 57.875 C 381.417969 59.515625 379.777344 60.78125 377.882812 61.664062 C 375.988281 62.421875 373.964844 62.925781 371.820312 62.925781 C 368.285156 62.925781 365.503906 61.789062 363.609375 59.644531 C 361.589844 57.496094 360.578125 54.71875 360.578125 51.308594 C 360.578125 48.027344 361.335938 45.121094 362.851562 42.722656 C 364.367188 40.324219 366.261719 38.429688 368.664062 37.167969 C 371.0625 35.902344 373.585938 35.273438 376.238281 35.273438 C 379.523438 35.273438 382.300781 36.410156 384.703125 38.683594 L 384.953125 37.546875 C 385.082031 36.914062 385.332031 36.535156 385.839844 36.15625 C 386.34375 35.777344 386.847656 35.523438 387.480469 35.523438 C 388.113281 35.523438 388.742188 35.777344 389.121094 36.15625 C 389.628906 36.660156 389.753906 37.167969 389.753906 37.925781 L 389.628906 38.683594 L 387.480469 51.183594 C 387.226562 52.824219 386.976562 54.214844 386.976562 55.476562 C 386.976562 56.738281 387.226562 57.75 387.859375 58.507812 C 388.363281 59.265625 389.25 59.769531 390.386719 59.769531 C 393.164062 59.769531 395.183594 58.632812 396.699219 56.234375 C 398.214844 53.835938 398.972656 50.679688 398.972656 46.636719 C 398.972656 42.597656 397.964844 39.0625 395.816406 36.15625 C 393.796875 33.253906 391.015625 30.980469 387.734375 29.589844 C 384.449219 28.074219 380.914062 27.316406 377.375 27.316406 C 373.082031 27.316406 368.914062 28.453125 365.253906 30.726562 C 361.464844 33 358.433594 36.03125 356.285156 39.820312 C 354.011719 43.605469 352.875 47.648438 352.875 52.066406 C 352.875 55.351562 353.632812 58.382812 355.273438 61.410156 C 356.789062 64.441406 359.0625 66.839844 362.09375 68.609375 C 365.125 70.503906 368.535156 71.386719 372.703125 71.386719 C 375.355469 71.386719 377.753906 71.132812 379.648438 70.628906 C 381.671875 70.125 383.945312 69.367188 386.46875 68.355469 C 386.722656 68.230469 386.976562 68.230469 387.226562 68.230469 C 387.734375 68.230469 388.113281 68.355469 388.363281 68.734375 C 388.617188 68.988281 388.871094 69.367188 388.871094 69.871094 C 388.871094 70.125 388.742188 70.503906 388.617188 70.757812 C 388.492188 71.007812 388.238281 71.261719 387.984375 71.386719 C 383.3125 73.660156 378.261719 74.921875 372.703125 74.921875 C 368.15625 74.542969 364.117188 73.535156 360.578125 71.386719 Z M 383.1875 49.164062 L 384.195312 42.976562 C 382.300781 40.957031 379.777344 39.945312 376.746094 39.945312 C 374.851562 39.945312 373.082031 40.324219 371.441406 41.207031 C 369.800781 42.089844 368.410156 43.226562 367.398438 44.871094 C 366.390625 46.511719 365.882812 48.40625 365.882812 50.679688 C 365.882812 53.203125 366.640625 55.097656 368.03125 56.488281 C 369.421875 57.75 371.3125 58.382812 373.460938 58.382812 C 379.019531 58.382812 382.175781 55.222656 383.1875 49.164062 Z M 383.1875 49.164062 " fill-opacity="1" fill-rule="nonzero"/><path fill="#8d95ff" d="M 358.8125 69.746094 C 355.273438 67.597656 352.621094 64.820312 350.601562 61.410156 C 348.707031 57.875 347.695312 54.214844 347.695312 50.171875 C 347.695312 45.25 348.960938 40.578125 351.484375 36.28125 C 354.011719 31.988281 357.421875 28.582031 361.714844 25.929688 C 366.011719 23.402344 370.683594 22.015625 375.609375 22.015625 C 380.15625 22.015625 384.324219 23.023438 388.113281 24.917969 C 391.902344 26.8125 395.058594 29.589844 397.332031 33 C 399.605469 36.410156 400.742188 40.324219 400.742188 44.742188 C 400.742188 47.519531 400.363281 50.171875 399.480469 52.574219 C 398.59375 55.097656 397.332031 57.117188 395.4375 58.632812 C 393.667969 60.273438 391.269531 61.03125 388.492188 61.03125 C 386.34375 61.03125 384.574219 60.527344 383.3125 59.644531 C 382.050781 58.632812 381.292969 57.496094 381.039062 56.234375 C 379.648438 57.875 378.007812 59.140625 376.113281 60.023438 C 374.21875 60.78125 372.199219 61.285156 370.050781 61.285156 C 366.515625 61.285156 363.738281 60.148438 361.84375 58.003906 C 359.820312 55.855469 358.8125 53.078125 358.8125 49.667969 C 358.8125 46.386719 359.570312 43.480469 361.085938 41.082031 C 362.601562 38.683594 364.496094 36.789062 366.894531 35.523438 C 369.292969 34.261719 371.820312 33.632812 374.472656 33.632812 C 377.753906 33.632812 380.535156 34.769531 382.933594 37.039062 L 383.1875 35.902344 C 383.3125 35.273438 383.566406 34.894531 384.070312 34.515625 C 384.574219 34.136719 385.082031 33.882812 385.710938 33.882812 C 386.34375 33.882812 386.976562 34.136719 387.355469 34.515625 C 387.859375 35.019531 387.984375 35.523438 387.984375 36.28125 L 387.859375 37.039062 L 385.710938 49.542969 C 385.460938 51.183594 385.207031 52.574219 385.207031 53.835938 C 385.207031 55.097656 385.460938 56.109375 386.089844 56.867188 C 386.597656 57.625 387.480469 58.128906 388.617188 58.128906 C 391.394531 58.128906 393.417969 56.992188 394.933594 54.59375 C 396.449219 52.195312 397.207031 49.035156 397.207031 44.996094 C 397.207031 40.957031 396.195312 37.417969 394.046875 34.515625 C 392.027344 31.609375 389.25 29.335938 385.964844 27.949219 C 382.679688 26.433594 379.144531 25.675781 375.609375 25.675781 C 371.316406 25.675781 367.148438 26.8125 363.484375 29.085938 C 359.695312 31.359375 356.664062 34.390625 354.515625 38.175781 C 352.242188 41.964844 351.105469 46.007812 351.105469 50.425781 C 351.105469 53.707031 351.863281 56.738281 353.507812 59.769531 C 355.023438 62.800781 357.296875 65.199219 360.328125 66.96875 C 363.359375 68.863281 366.769531 69.746094 370.9375 69.746094 C 373.589844 69.746094 375.988281 69.492188 377.882812 68.988281 C 379.902344 68.484375 382.175781 67.726562 384.703125 66.714844 C 384.953125 66.589844 385.207031 66.589844 385.460938 66.589844 C 385.964844 66.589844 386.34375 66.714844 386.597656 67.09375 C 386.847656 67.347656 387.101562 67.726562 387.101562 68.230469 C 387.101562 68.484375 386.976562 68.863281 386.847656 69.113281 C 386.722656 69.367188 386.46875 69.621094 386.21875 69.746094 C 381.542969 72.019531 376.492188 73.28125 370.9375 73.28125 C 366.390625 72.902344 362.347656 71.890625 358.8125 69.746094 Z M 381.417969 47.394531 L 382.429688 41.207031 C 380.535156 39.1875 378.007812 38.175781 374.976562 38.175781 C 373.082031 38.175781 371.316406 38.554688 369.671875 39.441406 C 368.03125 40.324219 366.640625 41.460938 365.632812 43.101562 C 364.621094 44.742188 364.117188 46.636719 364.117188 48.910156 C 364.117188 51.4375 364.875 53.332031 366.261719 54.71875 C 367.652344 55.980469 369.546875 56.613281 371.691406 56.613281 C 377.25 56.613281 380.40625 53.582031 381.417969 47.394531 Z M 381.417969 47.394531 " fill-opacity="1" fill-rule="nonzero"/><path fill="#e1e5ff" d="M 771.179688 470.414062 L 766.757812 470.414062 L 766.757812 465.113281 C 766.757812 457.660156 760.695312 451.472656 753.117188 451.472656 C 745.667969 451.472656 739.476562 457.535156 739.476562 465.113281 L 739.476562 470.414062 L 736.195312 470.414062 C 734.550781 470.414062 733.289062 471.679688 733.289062 473.320312 L 733.289062 502.617188 C 733.289062 504.257812 734.550781 505.519531 736.195312 505.519531 L 771.179688 505.519531 C 772.820312 505.519531 774.082031 504.257812 774.082031 502.617188 L 774.082031 473.320312 C 774.082031 471.679688 772.820312 470.414062 771.179688 470.414062 Z M 762.085938 470.414062 L 744.152344 470.414062 L 744.152344 465.113281 C 744.152344 460.1875 748.191406 456.148438 753.117188 456.148438 C 758.042969 456.148438 762.085938 460.1875 762.085938 465.113281 Z M 762.085938 470.414062 " fill-opacity="1" fill-rule="nonzero"/><path fill="#fc6054" d="M 768.527344 467.511719 L 764.105469 467.511719 L 764.105469 462.207031 C 764.105469 454.757812 758.042969 448.570312 750.464844 448.570312 C 743.015625 448.570312 736.824219 454.632812 736.824219 462.207031 L 736.824219 467.511719 L 733.542969 467.511719 C 731.898438 467.511719 730.636719 468.773438 730.636719 470.414062 L 730.636719 499.710938 C 730.636719 501.351562 731.898438 502.617188 733.542969 502.617188 L 768.527344 502.617188 C 770.167969 502.617188 771.429688 501.351562 771.429688 499.710938 L 771.429688 470.414062 C 771.429688 468.898438 770.167969 467.511719 768.527344 467.511719 Z M 759.433594 467.511719 L 741.5 467.511719 L 741.5 462.207031 C 741.5 457.28125 745.539062 453.242188 750.464844 453.242188 C 755.390625 453.242188 759.433594 457.28125 759.433594 462.207031 Z M 759.433594 467.511719 " fill-opacity="1" fill-rule="nonzero"/><path fill="#ffffff" d="M 754.128906 491.757812 L 747.941406 491.757812 C 747.5625 491.757812 747.308594 491.378906 747.433594 491.125 L 749.078125 484.8125 C 748.191406 484.179688 747.6875 483.167969 747.6875 482.03125 C 747.6875 480.140625 749.203125 478.625 751.097656 478.625 C 752.992188 478.625 754.507812 480.140625 754.507812 482.03125 C 754.507812 483.167969 753.875 484.179688 753.117188 484.8125 L 754.761719 491.125 C 754.761719 491.378906 754.507812 491.757812 754.128906 491.757812 Z M 754.128906 491.757812 " fill-opacity="1" fill-rule="nonzero"/><path fill="#fcbba4" d="M 332.539062 616.390625 C 332.539062 616.390625 323.320312 630.53125 300.585938 618.535156 L 300.460938 616.769531 L 299.324219 601.742188 L 331.152344 601.742188 L 331.78125 607.800781 Z M 332.539062 616.390625 " fill-opacity="1" fill-rule="nonzero"/><path fill="#f2a07c" d="M 331.78125 607.800781 C 331.402344 607.675781 330.898438 607.675781 330.519531 607.550781 C 327.742188 606.917969 324.960938 605.910156 322.058594 605.78125 C 319.152344 605.65625 315.996094 606.664062 314.605469 609.191406 C 313.722656 610.832031 313.722656 612.851562 312.710938 614.367188 C 311.449219 616.640625 308.542969 617.652344 305.890625 617.777344 C 303.996094 617.777344 302.230469 617.398438 300.460938 616.769531 L 299.324219 601.742188 L 331.152344 601.742188 Z M 331.78125 607.800781 " fill-opacity="1" fill-rule="nonzero"/><path fill="#fcbba4" d="M 212.429688 595.046875 L 211.167969 606.917969 L 210.914062 609.695312 C 210.914062 609.695312 200.558594 620.050781 183.128906 608.308594 C 181.863281 607.421875 180.476562 606.414062 179.210938 605.402344 L 181.484375 588.734375 Z M 212.429688 595.046875 " fill-opacity="1" fill-rule="nonzero"/><path fill="#f2a07c" d="M 212.429688 595.046875 L 211.167969 606.917969 C 208.007812 606.539062 204.976562 605.277344 201.945312 604.140625 C 197.777344 602.75 193.105469 601.613281 189.191406 603.636719 C 186.917969 604.773438 185.148438 606.792969 183.128906 608.179688 C 181.863281 607.296875 180.476562 606.289062 179.210938 605.277344 L 181.484375 588.609375 Z M 212.429688 595.046875 " fill-opacity="1" fill-rule="nonzero"/><path stroke-linecap="round" transform="matrix(1.262996, 0, 0, 1.262747, 41.672592, -117.89846)" fill="none" stroke-linejoin="round" d="M 230.298848 581.501142 C 230.298848 581.501142 222.999734 592.699442 204.999377 583.199448 L 204.000388 569.900693 L 229.200888 569.900693 Z M 230.298848 581.501142 " stroke="#112544" stroke-width="1.5" stroke-opacity="1" stroke-miterlimit="10"/><path fill="#112544" d="M 370.558594 644.675781 L 370.558594 644.800781 C 370.558594 645.9375 369.671875 646.820312 368.535156 646.820312 L 296.167969 646.820312 C 295.03125 646.820312 294.144531 645.9375 294.144531 644.800781 C 294.273438 642.90625 294.273438 639.496094 293.894531 633.308594 C 293.261719 621.691406 300.460938 618.535156 300.460938 618.535156 C 323.195312 630.53125 332.414062 616.390625 332.414062 616.390625 L 341.886719 625.605469 L 359.695312 630.785156 C 366.136719 632.425781 370.558594 638.234375 370.558594 644.675781 Z M 370.558594 644.675781 " fill-opacity="1" fill-rule="nonzero"/><path fill="#66d3d8" d="M 362.222656 486.957031 L 351.484375 591.386719 C 350.855469 597.070312 346.9375 601.613281 341.632812 603.257812 C 340.371094 603.636719 339.109375 603.761719 337.71875 603.761719 L 293.386719 603.761719 C 284.546875 603.761719 277.851562 595.425781 280 586.839844 L 305.007812 480.894531 C 306.269531 475.71875 305.890625 470.289062 303.996094 465.363281 C 284.292969 414.351562 275.453125 369.523438 278.105469 331.386719 L 340.496094 331.386719 L 344.035156 353.484375 L 361.714844 462.335938 C 363.105469 470.414062 363.230469 478.625 362.222656 486.957031 Z M 362.222656 486.957031 " fill-opacity="1" fill-rule="nonzero"/><path fill="#47b6c3" d="M 338.601562 598.457031 C 339.992188 599.722656 341.003906 601.363281 341.632812 603.003906 C 340.371094 603.382812 339.109375 603.507812 337.71875 603.507812 L 293.386719 603.507812 C 284.546875 603.507812 277.851562 595.175781 280 586.589844 L 305.007812 480.644531 C 306.269531 475.464844 305.890625 470.035156 303.996094 465.113281 C 284.292969 414.097656 275.453125 369.269531 278.105469 331.132812 L 340.496094 331.132812 L 344.035156 353.234375 C 332.917969 360.808594 319.65625 365.480469 311.195312 375.960938 C 298.1875 391.871094 301.21875 415.613281 309.175781 434.679688 C 317.132812 453.621094 329.128906 471.300781 332.917969 491.503906 C 336.457031 511.074219 331.402344 532.164062 319.277344 547.949219 C 314.605469 554.136719 308.796875 559.566406 305.511719 566.511719 C 302.101562 573.457031 301.851562 582.800781 307.53125 588.105469 C 315.617188 595.679688 330.519531 590.753906 338.601562 598.457031 Z M 338.601562 598.457031 " fill-opacity="1" fill-rule="nonzero"/><path stroke-linecap="round" transform="matrix(1.262996, 0, 0, 1.262747, 41.672592, -117.89846)" fill="none" stroke-linejoin="round" d="M 208.500477 474.099544 L 188.700084 558.000179 C 187.101083 564.898579 192.300156 571.401018 199.299264 571.401018 L 234.39996 571.401018 C 240.001102 571.401018 244.699134 567.200108 245.299145 561.600958 L 253.801376 478.900583 C 254.59933 472.401239 254.500359 465.79981 253.50137 459.300465 L 236.701037 355.598637 L 187.299025 355.598637 C 185.100013 385.800019 192.201185 421.300487 207.801494 461.700984 C 209.19946 465.700819 209.499466 470.000719 208.500477 474.099544 Z M 208.500477 474.099544 " stroke="#112544" stroke-width="1.5" stroke-opacity="1" stroke-miterlimit="10"/><path stroke-linecap="round" transform="matrix(1.262996, 0, 0, 1.262747, 41.672592, -117.89846)" fill="none" stroke-linejoin="round" d="M 133.901059 576.198963 C 133.901059 576.198963 124.49881 585.698958 108.79953 572.700268 L 110.599565 559.401513 L 135.200054 564.499524 Z M 133.901059 576.198963 " stroke="#112544" stroke-width="1.5" stroke-opacity="1" stroke-miterlimit="10"/><path fill="#112544" d="M 242.109375 645.179688 L 242.109375 645.304688 C 241.855469 646.316406 240.847656 647.074219 239.835938 646.820312 L 168.984375 632.171875 C 167.847656 631.921875 167.214844 630.785156 167.46875 629.773438 C 167.972656 628.007812 168.730469 624.597656 169.613281 618.535156 C 171.257812 607.042969 179.085938 605.402344 179.085938 605.402344 C 198.914062 621.820312 210.789062 609.824219 210.789062 609.824219 L 218.238281 620.808594 L 234.660156 629.523438 C 240.34375 632.300781 243.5 638.738281 242.109375 645.179688 Z M 242.109375 645.179688 " fill-opacity="1" fill-rule="nonzero"/><path fill="#66d3d8" d="M 305.511719 331.261719 L 303.871094 344.644531 L 288.96875 464.859375 C 287.703125 474.582031 285.179688 484.179688 281.390625 493.269531 L 239.835938 589.746094 C 237.816406 594.417969 233.394531 597.574219 228.21875 598.078125 C 227.839844 598.078125 227.460938 598.078125 227.082031 598.078125 L 174.160156 598.078125 C 163.550781 598.078125 156.984375 586.589844 162.164062 577.496094 L 218.617188 479.003906 C 221.523438 473.824219 222.914062 467.890625 222.785156 461.828125 C 221.398438 421.546875 223.921875 381.519531 244.003906 331.386719 L 305.511719 331.386719 Z M 305.511719 331.261719 " fill-opacity="1" fill-rule="nonzero"/><path fill="#47b6c3" d="M 305.511719 331.261719 L 303.871094 344.644531 C 295.410156 340.859375 286.441406 339.46875 276.085938 342.371094 C 260.929688 346.414062 248.425781 358.914062 244.128906 374.066406 C 238.828125 393.136719 246.402344 413.085938 249.5625 432.660156 C 256.253906 474.203125 241.351562 518.527344 210.914062 547.570312 C 201.695312 556.410156 181.863281 570.046875 191.210938 578.757812 C 196.894531 584.0625 207 579.390625 214.199219 582.546875 C 220.890625 585.453125 226.703125 591.132812 228.34375 598.207031 C 227.964844 598.207031 227.585938 598.207031 227.207031 598.207031 L 174.289062 598.207031 C 163.679688 598.207031 157.109375 586.714844 162.289062 577.621094 L 218.746094 479.128906 C 221.648438 473.953125 223.039062 468.015625 222.914062 461.957031 C 221.523438 421.671875 224.050781 381.644531 244.128906 331.511719 L 305.511719 331.511719 Z M 305.511719 331.261719 " fill-opacity="1" fill-rule="nonzero"/><path stroke-linecap="round" transform="matrix(1.262996, 0, 0, 1.262747, 41.672592, -117.89846)" fill="none" stroke-linejoin="round" d="M 104.899452 566.999034 L 146.801315 566.999034 C 151.19934 566.999034 155.099417 564.400533 156.800482 560.400698 L 189.699073 483.998594 C 192.699133 476.800129 194.700203 469.298505 195.699192 461.49991 L 208.800483 355.700721 L 160.100548 355.700721 C 144.200232 395.399004 142.199161 427.199702 143.300214 459.0004 C 143.501249 463.699355 142.301225 468.401404 140.000149 472.59922 L 95.299262 550.600639 C 91.300213 557.901188 96.601349 566.999034 104.899452 566.999034 Z M 104.899452 566.999034 " stroke="#112544" stroke-width="1.5" stroke-opacity="1" stroke-miterlimit="10"/><path fill="#8d95ff" d="M 393.417969 337.828125 L 392.40625 338.457031 C 387.605469 341.109375 381.417969 339.59375 378.511719 334.921875 L 341.128906 275.828125 L 340.875 307.269531 L 340.625 331.386719 L 244.003906 331.386719 C 242.613281 319.894531 240.722656 303.859375 240.089844 287.824219 C 239.207031 264.839844 240.722656 241.730469 249.941406 231.503906 C 252.339844 228.851562 254.992188 226.453125 257.644531 224.558594 C 276.210938 210.921875 300.082031 212.058594 300.082031 212.058594 L 318.519531 216.351562 L 322.6875 217.359375 C 332.539062 219.632812 341.761719 223.800781 349.96875 229.609375 C 353.632812 232.261719 359.0625 238.953125 365.253906 247.917969 C 377.628906 265.472656 392.785156 291.359375 402.003906 309.164062 C 407.5625 319.265625 403.648438 332.144531 393.417969 337.828125 Z M 393.417969 337.828125 " fill-opacity="1" fill-rule="nonzero"/><path fill="#757bff" d="M 365.378906 247.667969 C 361.210938 244.382812 356.917969 241.226562 352.371094 238.324219 C 345.171875 233.777344 337.339844 229.988281 329.128906 227.210938 C 314.480469 222.285156 298.945312 220.265625 283.535156 221.527344 C 276.210938 222.160156 269.265625 224.304688 262.066406 225.191406 C 259.917969 225.441406 258.65625 225.0625 257.769531 224.304688 C 276.335938 210.667969 300.207031 211.804688 300.207031 211.804688 L 318.648438 216.097656 L 322.816406 217.109375 C 332.667969 219.382812 341.886719 223.546875 350.097656 229.355469 C 353.757812 232.007812 359.191406 238.828125 365.378906 247.667969 Z M 365.378906 247.667969 " fill-opacity="1" fill-rule="nonzero"/><path stroke-linecap="round" transform="matrix(1.262996, 0, 0, 1.262747, 41.672592, -117.89846)" fill-opacity="1" fill="#ffffff" fill-rule="nonzero" stroke-linejoin="round" d="M 220.500715 264.799602 L 220.398651 265.300742 C 218.700679 271.298947 213.099537 275.499856 206.799412 275.499856 C 205.500418 275.499856 204.099359 275.298782 202.800364 274.899726 C 199.200293 273.900541 196.200233 271.500022 194.400197 268.199307 C 193.401208 266.398917 192.801196 264.400547 192.699133 262.399083 C 199.500298 261.198823 204.699371 261.198823 204.699371 261.198823 L 219.300691 264.598528 Z M 220.500715 264.799602 " stroke="#112544" stroke-width="1.5" stroke-opacity="1" stroke-miterlimit="10"/><path fill="#757bff" d="M 340.75 307.140625 L 340.496094 331.261719 L 243.878906 331.261719 C 242.488281 319.769531 240.59375 303.734375 239.964844 287.695312 C 243.246094 285.421875 247.289062 284.160156 251.203125 283.402344 C 257.140625 282.140625 263.453125 281.257812 268.128906 277.339844 C 271.789062 274.3125 272.421875 272.921875 274.441406 268.628906 C 275.453125 266.355469 269.265625 258.90625 272.546875 259.410156 C 275.707031 259.914062 283.15625 269.640625 283.664062 271.910156 C 285.429688 279.867188 290.105469 281.636719 295.410156 287.949219 C 303.367188 297.546875 315.109375 304.113281 327.488281 305.753906 C 331.910156 306.382812 336.457031 306.511719 340.75 307.140625 Z M 340.75 307.140625 " fill-opacity="1" fill-rule="nonzero"/><path stroke-linecap="round" transform="matrix(1.262996, 0, 0, 1.262747, 41.672592, -117.89846)" fill-opacity="1" fill="#fcbba4" fill-rule="nonzero" stroke-linejoin="round" d="M 285.400972 337.999982 C 279.598795 326.900673 271.300692 312.200584 263.098468 299.498865 C 253.999318 300.201079 245.299145 304.398895 237.001043 311.801528 L 266.500597 358.599287 C 268.798581 362.299056 273.70074 363.6014 277.498753 361.398862 L 278.398771 360.900816 C 286.600996 356.399841 289.700026 346.200727 285.400972 337.999982 Z M 285.400972 337.999982 " stroke="#112544" stroke-width="1.5" stroke-opacity="1" stroke-miterlimit="10"/><path stroke-linecap="round" transform="matrix(1.262996, 0, 0, 1.262747, 41.672592, -117.89846)" fill="none" stroke-linejoin="round" d="M 278.500835 360.900816 L 277.699788 361.398862 C 273.898682 363.499316 268.999616 362.299056 266.698539 358.599287 L 237.100014 311.801528 L 236.701037 355.799711 L 160.199519 355.799711 C 157.601529 333.601092 153.800423 291.60128 164.999614 276.700116 C 171.599745 267.899242 183.599983 264.100482 192.699133 262.501166 C 199.500298 261.300907 204.699371 261.300907 204.699371 261.300907 L 219.300691 264.700612 L 220.500715 265.000677 L 222.600757 265.498723 C 230.400912 267.299112 237.700026 270.599827 244.201185 275.199791 C 252.799294 281.399071 274.399723 316.998529 285.400972 338.098973 C 289.700026 346.200727 286.600996 356.399841 278.500835 360.900816 Z M 278.500835 360.900816 " stroke="#112544" stroke-width="1.5" stroke-opacity="1" stroke-miterlimit="10"/><path fill="#efa130" d="M 468.566406 273.425781 C 468.4375 273.175781 468.3125 272.921875 468.3125 272.796875 C 464.398438 264.714844 454.671875 261.429688 446.714844 265.34375 L 270.023438 351.339844 C 252.84375 331.765625 223.292969 325.578125 197.652344 338.078125 C 177.695312 347.804688 165.195312 366.492188 162.921875 386.441406 C 161.785156 396.796875 163.425781 407.53125 168.226562 417.507812 C 182.371094 446.550781 218.617188 458.167969 248.929688 443.394531 C 273.179688 431.648438 286.441406 406.648438 283.664062 382.277344 C 283.664062 381.769531 283.535156 381.265625 283.535156 380.761719 L 283.914062 380.632812 L 345.929688 350.453125 L 357.042969 373.183594 C 358.433594 376.089844 361.96875 377.351562 365 375.960938 L 381.292969 368.007812 C 384.195312 366.617188 385.460938 362.957031 384.070312 360.050781 L 381.671875 355 L 373.082031 337.195312 L 378.132812 334.796875 L 413.625 317.496094 L 433.582031 358.285156 C 434.96875 361.1875 438.503906 362.449219 441.410156 361.0625 L 457.703125 353.105469 C 460.609375 351.71875 461.871094 348.183594 460.480469 345.152344 L 458.082031 340.101562 L 440.652344 304.238281 L 445.703125 301.839844 L 461.238281 294.261719 C 468.566406 290.726562 471.976562 281.382812 468.566406 273.425781 Z M 189.820312 381.519531 C 190.578125 380.761719 191.464844 380.128906 192.472656 379.625 C 194.621094 378.613281 197.019531 378.488281 199.167969 379.246094 C 201.316406 380.003906 203.082031 381.519531 204.21875 383.664062 L 215.964844 407.910156 L 217.480469 410.941406 C 219.628906 415.359375 217.734375 420.535156 213.441406 422.683594 C 209.019531 424.832031 203.839844 422.9375 201.695312 418.644531 L 188.433594 391.492188 C 186.664062 387.957031 187.421875 384.042969 189.820312 381.519531 Z M 189.820312 381.519531 " fill-opacity="1" fill-rule="nonzero"/><path fill="#ffc25e" d="M 468.3125 272.796875 C 464.398438 264.714844 454.671875 261.429688 446.714844 265.34375 L 270.023438 351.339844 C 252.84375 331.765625 223.292969 325.578125 197.652344 338.078125 C 177.695312 347.804688 165.195312 366.492188 162.921875 386.441406 C 163.679688 392.628906 165.320312 398.816406 168.226562 404.753906 C 182.371094 433.796875 218.617188 445.414062 248.929688 430.640625 C 268.886719 420.914062 281.515625 402.226562 283.664062 382.277344 C 283.789062 381.769531 283.789062 381.140625 283.789062 380.632812 C 284.167969 376.46875 284.042969 372.175781 283.410156 368.007812 L 345.800781 337.574219 L 356.917969 360.304688 C 358.304688 363.207031 361.84375 364.472656 364.875 363.082031 L 381.164062 355.125 C 381.292969 355.125 381.292969 355 381.417969 355 L 372.832031 337.195312 L 367.777344 326.839844 L 413.246094 304.617188 L 433.203125 345.402344 C 434.589844 348.308594 438.125 349.570312 441.03125 348.179688 L 457.324219 340.226562 C 457.449219 340.226562 457.449219 340.101562 457.578125 340.101562 L 440.148438 304.238281 L 435.097656 293.882812 L 460.734375 281.382812 C 464.398438 279.613281 467.050781 276.710938 468.566406 273.175781 C 468.4375 273.300781 468.3125 273.046875 468.3125 272.796875 Z M 215.839844 420.535156 C 215.082031 421.292969 214.324219 421.925781 213.3125 422.429688 C 208.894531 424.578125 203.714844 422.683594 201.566406 418.390625 L 189.820312 394.144531 L 188.304688 391.113281 C 186.160156 386.820312 187.925781 381.519531 192.347656 379.371094 C 194.496094 378.359375 196.894531 378.234375 199.042969 378.992188 C 201.1875 379.75 202.957031 381.265625 204.09375 383.414062 L 217.355469 410.5625 C 218.996094 414.097656 218.238281 418.011719 215.839844 420.535156 Z M 215.839844 420.535156 " fill-opacity="1" fill-rule="nonzero"/><path stroke-linecap="round" transform="matrix(1.262996, 0, 0, 1.262747, 41.672592, -117.89846)" fill="none" stroke-linejoin="round" d="M 331.29879 366.800031 L 315.500538 334.501287 L 331.799831 326.600608 C 338.099956 323.500968 340.80001 315.801363 337.700979 309.499999 C 334.598856 303.099645 326.900765 300.501144 320.60064 303.600784 L 180.698894 371.70006 C 167.099656 356.198767 143.699191 351.298737 123.40085 361.200881 C 99.400374 372.80133 88.999137 401.001248 100.201421 424.001072 C 111.400612 447.000895 140.09912 456.200825 164.099596 444.501385 C 183.698954 435.001391 194.199162 414.600068 191.499109 394.900958 L 240.90112 370.799865 L 249.700264 388.800669 C 250.801316 391.099105 253.600341 392.101383 256.000389 391.000114 L 268.900645 384.69875 C 271.198628 383.600574 272.20071 380.698915 271.099657 378.40048 L 262.300514 360.399676 L 294.299087 344.799392 L 310.100431 377.101229 C 311.201484 379.399665 314.000509 380.39885 316.298492 379.300675 L 329.198748 372.999311 C 331.499825 372.000125 332.498814 369.20055 331.29879 366.800031 Z M 135.899036 428.000906 C 132.401029 429.699212 128.299917 428.198887 126.598852 424.799182 L 116.098644 403.299684 C 114.400672 399.899979 115.900701 395.699069 119.299738 394.000764 C 121.000803 393.199559 122.899809 393.100569 124.600874 393.700699 C 126.298846 394.300829 127.699905 395.501088 128.599923 397.199394 L 139.100131 418.698893 C 140.801196 422.098598 139.301166 426.299507 135.899036 428.000906 Z M 135.899036 428.000906 " stroke="#112544" stroke-width="1.5" stroke-opacity="1" stroke-miterlimit="10"/><path fill="#fc6054" d="M 332.539062 179.605469 C 326.605469 181.246094 320.542969 177.835938 318.898438 171.902344 C 318.519531 170.511719 318.394531 168.996094 318.519531 167.609375 C 317.511719 167.484375 316.625 167.355469 315.617188 167.105469 C 313.847656 172.535156 309.804688 177.078125 304.375 179.101562 C 304.882812 184.402344 301.597656 189.453125 296.292969 190.96875 C 290.355469 192.609375 284.292969 189.203125 282.652344 183.265625 C 281.769531 180.234375 282.273438 177.207031 283.789062 174.679688 C 281.640625 172.40625 280 169.628906 279.117188 166.472656 C 276.335938 156.242188 282.273438 145.761719 292.378906 142.984375 C 297.683594 141.46875 302.988281 142.355469 307.28125 145.003906 C 309.175781 141.976562 312.207031 139.574219 315.996094 138.4375 C 323.953125 136.292969 332.160156 140.839844 334.308594 148.792969 C 335.191406 152.203125 334.941406 155.613281 333.675781 158.644531 C 336.835938 159.90625 339.234375 162.558594 340.246094 165.96875 C 341.886719 171.902344 338.476562 177.964844 332.539062 179.605469 Z M 332.539062 179.605469 " fill-opacity="1" fill-rule="nonzero"/><path fill="#e64b38" d="M 308.921875 162.683594 C 308.921875 162.683594 308.796875 168.871094 315.742188 172.535156 L 317.636719 167.105469 C 313.972656 166.851562 311.320312 165.082031 308.921875 162.683594 Z M 308.921875 162.683594 " fill-opacity="1" fill-rule="nonzero"/><path fill="#e64b38" d="M 334.183594 148.164062 C 330.519531 143.867188 324.582031 141.847656 318.773438 143.492188 C 314.984375 144.5 311.953125 146.898438 310.058594 150.054688 C 305.765625 147.40625 300.335938 146.519531 295.15625 148.035156 C 284.925781 150.8125 278.988281 161.296875 281.894531 171.523438 C 282.019531 172.027344 282.148438 172.535156 282.398438 173.039062 C 280.882812 171.144531 279.746094 168.871094 279.117188 166.472656 C 276.335938 156.242188 282.273438 145.761719 292.378906 142.984375 C 297.683594 141.46875 302.988281 142.355469 307.28125 145.003906 C 309.175781 141.976562 312.207031 139.574219 315.996094 138.4375 C 323.699219 136.292969 331.65625 140.585938 334.183594 148.164062 Z M 334.183594 148.164062 " fill-opacity="1" fill-rule="nonzero"/><path stroke-linecap="round" transform="matrix(1.262996, 0, 0, 1.262747, 41.672592, -117.89846)" fill="none" stroke-linejoin="round" d="M 230.298848 235.600498 C 225.600816 236.899749 220.800721 234.199164 219.498633 229.500209 C 219.198627 228.39894 219.099656 227.19868 219.198627 226.100504 C 218.400674 226.001514 217.698598 225.89943 216.900644 225.701449 C 215.499585 230.001348 212.298491 233.599034 207.999436 235.201443 C 208.401506 239.399259 205.800423 243.399094 201.60034 244.599353 C 196.899216 245.898604 192.099121 243.201113 190.800126 238.499064 C 190.101143 236.098544 190.50012 233.701118 191.700144 231.699654 C 189.999079 229.899264 188.700084 227.699819 188.001101 225.200309 C 185.798996 217.098556 190.50012 208.798821 198.50131 206.599376 C 202.701393 205.399116 206.901476 206.10133 210.300513 208.198691 C 211.800543 205.801265 214.20059 203.898791 217.20065 202.998596 C 223.500775 201.300291 229.998842 204.90107 231.699906 211.199341 C 232.398889 213.899925 232.200947 216.60051 231.198866 219.001029 C 233.700977 220.000215 235.599984 222.100669 236.401031 224.801254 C 237.700026 229.500209 234.999972 234.301248 230.298848 235.600498 Z M 230.298848 235.600498 " stroke="#112544" stroke-width="1.5" stroke-opacity="1" stroke-miterlimit="10"/><path fill="#fcbba4" d="M 340.371094 181.246094 C 339.359375 182.761719 337.71875 183.644531 335.949219 183.519531 C 337.972656 194 331.65625 204.355469 321.171875 207.257812 C 319.40625 207.765625 317.636719 208.015625 315.867188 208.015625 L 315.742188 208.015625 L 315.109375 210.035156 L 314.101562 213.574219 L 313.59375 215.089844 C 311.828125 221.023438 305.640625 224.558594 299.578125 222.789062 C 296.546875 221.90625 294.273438 219.886719 292.757812 217.359375 C 291.367188 214.835938 290.988281 211.804688 291.871094 208.773438 L 294.523438 199.429688 L 295.15625 197.410156 L 296.039062 194.503906 C 294.652344 195.390625 292.882812 195.515625 291.367188 194.757812 C 288.96875 193.496094 287.957031 190.589844 289.09375 188.066406 C 289.976562 186.296875 291.746094 185.289062 293.640625 185.289062 L 293.136719 183.519531 C 292.757812 182.257812 292.503906 180.867188 292.503906 179.605469 C 295.660156 180.488281 299.199219 180.488281 302.609375 179.605469 C 309.050781 177.835938 313.847656 172.914062 315.742188 166.976562 C 318.394531 167.734375 321.171875 167.859375 323.953125 167.105469 C 325.71875 166.597656 327.363281 165.839844 328.878906 164.703125 C 330.265625 166.347656 331.53125 168.367188 332.289062 170.511719 C 332.539062 171.144531 332.792969 171.902344 333.046875 172.660156 L 333.425781 174.554688 C 335.066406 173.542969 337.214844 173.417969 338.855469 174.554688 C 341.128906 175.941406 341.761719 178.972656 340.371094 181.246094 Z M 340.371094 181.246094 " fill-opacity="1" fill-rule="nonzero"/><path fill="#f2a07c" d="M 315.867188 208.015625 L 315.238281 210.035156 L 314.226562 213.574219 C 309.300781 212.308594 307.027344 205.996094 307.027344 205.996094 C 310.4375 207.132812 313.46875 207.890625 315.867188 208.015625 Z M 315.867188 208.015625 " fill-opacity="1" fill-rule="nonzero"/><path fill="#f2a07c" d="M 332.289062 170.511719 C 331.277344 172.15625 329.636719 173.417969 328.121094 174.425781 C 324.710938 176.320312 320.667969 176.953125 316.753906 177.332031 C 312.835938 177.710938 308.921875 177.964844 305.261719 179.480469 C 302.988281 180.363281 300.585938 182.128906 300.335938 184.65625 C 300.207031 185.917969 300.714844 187.179688 300.964844 188.570312 C 301.722656 191.851562 300.585938 195.640625 298.0625 197.914062 C 297.050781 198.796875 295.914062 199.429688 294.652344 199.683594 L 295.28125 197.664062 L 296.167969 194.757812 C 294.777344 195.640625 293.007812 195.769531 291.492188 195.011719 C 289.09375 193.746094 288.082031 190.84375 289.21875 188.316406 C 290.105469 186.550781 291.871094 185.539062 293.765625 185.539062 L 293.261719 183.773438 C 292.882812 182.507812 292.628906 181.121094 292.628906 179.855469 C 295.789062 180.742188 299.324219 180.742188 302.734375 179.855469 C 309.175781 178.089844 313.972656 173.164062 315.867188 167.230469 C 318.519531 167.988281 321.300781 168.113281 324.078125 167.355469 C 325.847656 166.851562 327.488281 166.09375 329.003906 164.957031 C 330.265625 166.472656 331.402344 168.367188 332.289062 170.511719 Z M 332.289062 170.511719 " fill-opacity="1" fill-rule="nonzero"/><path stroke-linecap="round" transform="matrix(1.262996, 0, 0, 1.262747, 41.672592, -117.89846)" fill="none" stroke-linejoin="round" d="M 236.500002 236.899749 C 235.698955 238.100009 234.39996 238.799129 232.998901 238.700138 C 234.600995 246.999873 229.599865 255.200617 221.298669 257.499053 C 219.900703 257.901202 218.499645 258.099183 217.098586 258.099183 L 216.600638 259.698498 L 215.400614 263.800417 C 213.999555 268.499372 209.100489 271.298947 204.300394 269.900706 C 201.900346 269.198492 200.10031 267.599177 198.900287 265.600806 C 197.799234 263.599342 197.499228 261.198823 198.201304 258.801397 L 200.799293 249.799448 L 201.501369 247.501012 C 200.400316 248.200133 198.999258 248.299123 197.799234 247.698993 C 195.900227 246.699808 195.09918 244.401372 195.999198 242.399908 C 196.701274 240.998574 198.09924 240.200463 199.59927 240.200463 L 199.200293 238.799129 C 198.900287 237.799944 198.699252 236.698674 198.699252 235.699489 C 201.201363 236.398609 204.000388 236.398609 206.700441 235.699489 C 211.800543 234.301248 215.598556 230.400404 217.098586 225.701449 C 219.198627 226.301579 221.400733 226.400569 223.599746 225.800439 C 225.000804 225.401384 226.299799 224.801254 227.499823 223.901059 C 228.999853 225.701449 230.100906 227.699819 230.799889 230.100339 L 231.099895 231.600664 C 232.398889 230.799459 234.099954 230.700469 235.398949 231.600664 C 237.100014 232.698839 237.601055 235.099359 236.500002 236.899749 Z M 236.500002 236.899749 " stroke="#112544" stroke-width="1.5" stroke-opacity="1" stroke-miterlimit="10"/><path stroke-linecap="round" transform="matrix(1.262996, 0, 0, 1.262747, 41.672592, -117.89846)" fill="none" stroke-linejoin="round" d="M 236.500002 236.899749 C 235.698955 238.100009 234.39996 238.799129 232.998901 238.700138 C 234.600995 246.999873 229.599865 255.200617 221.298669 257.499053 C 219.900703 257.901202 218.499645 258.099183 217.098586 258.099183 L 216.600638 259.698498 L 215.400614 263.800417 C 213.999555 268.499372 209.100489 271.298947 204.300394 269.900706 C 201.900346 269.198492 200.10031 267.599177 198.900287 265.600806 C 197.799234 263.599342 197.499228 261.198823 198.201304 258.801397 L 200.799293 249.799448 L 201.501369 247.501012 C 200.400316 248.200133 198.999258 248.299123 197.799234 247.698993 C 195.900227 246.699808 195.09918 244.401372 195.999198 242.399908 C 196.701274 240.998574 198.09924 240.200463 199.59927 240.200463 L 199.200293 238.799129 C 198.900287 237.799944 198.699252 236.698674 198.699252 235.699489 C 201.201363 236.398609 204.000388 236.398609 206.700441 235.699489 C 211.800543 234.301248 215.598556 230.400404 217.098586 225.701449 C 219.198627 226.301579 221.400733 226.400569 223.599746 225.800439 C 225.000804 225.401384 226.299799 224.801254 227.499823 223.901059 C 228.999853 225.701449 230.100906 227.699819 230.799889 230.100339 L 231.099895 231.600664 C 232.398889 230.799459 234.099954 230.700469 235.398949 231.600664 C 237.100014 232.698839 237.601055 235.099359 236.500002 236.899749 Z M 236.500002 236.899749 " stroke="#112544" stroke-width="1.5" stroke-opacity="1" stroke-miterlimit="10"/><path stroke-linecap="round" transform="matrix(1.262996, 0, 0, 1.262747, 41.672592, -117.89846)" fill="none" stroke-linejoin="round" d="M 217.098586 258.099183 C 214.20059 258.099183 211.398473 257.400062 208.899454 255.998728 " stroke="#112544" stroke-width="1.5" stroke-opacity="1" stroke-miterlimit="10"/><path stroke-linecap="round" transform="matrix(1.262996, 0, 0, 1.262747, 41.672592, -117.89846)" fill="none" stroke-linejoin="round" d="M 216.999615 225.701449 C 214.299561 224.900244 211.899514 223.099855 210.399484 220.699335 " stroke="#112544" stroke-width="1.5" stroke-opacity="1" stroke-miterlimit="10"/><path fill="#112544" d="M 327.742188 179.855469 C 327.992188 180.742188 327.488281 181.5 326.605469 181.75 C 325.71875 182.003906 324.835938 181.5 324.710938 180.742188 C 324.457031 179.855469 324.960938 178.972656 325.847656 178.847656 C 326.730469 178.722656 327.488281 178.972656 327.742188 179.855469 Z M 327.742188 179.855469 " fill-opacity="1" fill-rule="nonzero"/><path fill="#112544" d="M 327.742188 173.921875 C 327.992188 174.679688 325.972656 175.691406 324.078125 176.195312 C 322.183594 176.699219 319.53125 177.207031 319.40625 176.449219 C 319.152344 175.691406 321.550781 174.175781 323.320312 173.671875 C 325.214844 173.164062 327.488281 173.292969 327.742188 173.921875 Z M 327.742188 173.921875 " fill-opacity="1" fill-rule="nonzero"/><path fill="#112544" d="M 312.078125 178.722656 C 312.332031 179.480469 310.3125 180.488281 308.417969 180.992188 C 306.523438 181.5 303.871094 182.003906 303.746094 181.246094 C 303.492188 180.488281 305.890625 178.972656 307.660156 178.46875 C 309.425781 177.964844 311.828125 177.964844 312.078125 178.722656 Z M 312.078125 178.722656 " fill-opacity="1" fill-rule="nonzero"/><path fill="#112544" d="M 310.941406 185.035156 C 311.195312 185.917969 310.691406 186.675781 309.804688 186.929688 C 308.921875 187.179688 308.039062 186.675781 307.910156 185.917969 C 307.660156 185.035156 308.164062 184.152344 309.046875 184.023438 C 309.804688 183.773438 310.816406 184.277344 310.941406 185.035156 Z M 310.941406 185.035156 " fill-opacity="1" fill-rule="nonzero"/><path stroke-linecap="round" transform="matrix(1.262996, 0, 0, 1.262747, 41.672592, -117.89846)" fill="none" stroke-linejoin="round" d="M 218.499645 236.998739 C 218.499645 236.998739 223.200769 242.498899 221.598675 242.399908 C 221.100727 242.399908 219.600697 242.600983 219.600697 242.600983 " stroke="#112544" stroke-width="1.5" stroke-opacity="1" stroke-miterlimit="10"/><path stroke-linecap="round" transform="matrix(1.262996, 0, 0, 1.262747, 41.672592, -117.89846)" fill="none" stroke-linejoin="round" d="M 233.199936 234.799294 L 234.000983 234.601313 " stroke="#112544" stroke-width="1.5" stroke-opacity="1" stroke-miterlimit="10"/><path stroke-linecap="round" transform="matrix(1.262996, 0, 0, 1.262747, 41.672592, -117.89846)" fill="none" stroke-linejoin="round" d="M 198.09924 244.500363 L 198.900287 244.299289 " stroke="#112544" stroke-width="1.5" stroke-opacity="1" stroke-miterlimit="10"/><path fill="#112544" d="M 314.859375 193.242188 C 314.859375 193.496094 315.488281 197.914062 317.890625 200.441406 C 318.648438 201.324219 319.785156 201.957031 321.046875 202.207031 C 321.171875 202.207031 321.300781 202.207031 321.425781 202.207031 C 323.066406 202.207031 324.332031 201.070312 325.339844 199.683594 C 327.234375 196.90625 327.992188 192.988281 327.992188 192.609375 C 327.992188 192.484375 327.992188 192.359375 327.867188 192.359375 C 327.742188 192.359375 327.613281 192.359375 327.613281 192.359375 C 327.613281 192.359375 326.984375 192.738281 325.847656 193.117188 C 324.078125 193.746094 320.921875 194.253906 317.132812 193.496094 C 316.5 193.367188 315.867188 193.242188 315.363281 192.988281 C 315.238281 192.988281 315.109375 192.988281 315.109375 192.988281 C 314.859375 193.117188 314.859375 193.117188 314.859375 193.242188 Z M 314.859375 193.242188 " fill-opacity="1" fill-rule="nonzero"/><path fill="#fc6054" d="M 318.898438 199.808594 C 319.53125 200.441406 320.289062 200.945312 321.171875 201.070312 C 321.300781 201.070312 321.425781 201.070312 321.425781 201.070312 C 322.6875 201.070312 323.574219 200.3125 324.332031 199.175781 C 323.699219 198.546875 322.941406 198.039062 322.058594 197.914062 C 321.929688 197.914062 321.804688 197.914062 321.804688 197.914062 C 320.542969 197.914062 319.53125 198.671875 318.898438 199.808594 Z M 318.898438 199.808594 " fill-opacity="1" fill-rule="nonzero"/><path fill="#ffffff" d="M 317.132812 193.367188 C 317.761719 195.136719 319.40625 196.273438 321.425781 196.273438 C 323.445312 196.273438 325.214844 194.882812 325.847656 192.988281 C 323.953125 193.621094 320.921875 194.253906 317.132812 193.367188 Z M 317.132812 193.367188 " fill-opacity="1" fill-rule="nonzero"/><path stroke-linecap="round" transform="matrix(1.262996, 0, 0, 1.262747, 41.672592, -117.89846)" fill="none" stroke-linejoin="round" d="M 237.100014 311.699444 L 237.100014 303.900849 " stroke="#112544" stroke-width="1.5" stroke-opacity="1" stroke-miterlimit="10"/><path fill="#fcbba4" d="M 365.632812 323.8125 C 368.914062 325.703125 371.441406 327.472656 371.945312 329.492188 C 372.703125 332.523438 367.398438 329.367188 363.230469 327.976562 C 365.882812 329.621094 367.652344 330.882812 368.15625 332.523438 C 369.042969 335.679688 363.484375 332.648438 359.191406 331.132812 C 361.335938 332.523438 363.359375 332.523438 363.738281 334.039062 C 364.746094 337.699219 353.253906 334.796875 348.203125 333.40625 C 346.6875 333.027344 345.800781 332.648438 345.800781 332.648438 L 300.714844 327.726562 C 295.789062 327.21875 290.988281 326.335938 286.1875 324.945312 C 276.589844 322.167969 267.75 317.75 260.421875 311.4375 C 253.351562 305.375 247.792969 297.671875 244.507812 288.199219 C 244.382812 287.949219 244.257812 287.570312 244.257812 287.316406 C 241.480469 278.605469 240.46875 269.511719 241.605469 260.421875 C 241.730469 259.03125 241.984375 257.894531 242.234375 256.886719 L 271.410156 252.96875 L 274.0625 265.472656 C 277.980469 284.160156 292.125 298.933594 310.5625 303.605469 L 348.832031 313.328125 C 348.832031 313.328125 357.042969 306.511719 359.695312 309.035156 C 361.464844 310.804688 356.917969 315.855469 356.917969 315.855469 C 356.917969 315.855469 371.695312 319.894531 372.957031 324.695312 C 373.460938 327.347656 369.421875 324.945312 365.632812 323.8125 Z M 365.632812 323.8125 " fill-opacity="1" fill-rule="nonzero"/><path fill="#f2a07c" d="M 348.453125 332.523438 C 348.453125 332.902344 348.328125 333.15625 348.074219 333.40625 C 346.558594 333.027344 345.675781 332.648438 345.675781 332.648438 L 300.585938 327.726562 C 295.660156 327.21875 290.863281 326.335938 286.0625 324.945312 C 276.464844 322.167969 267.621094 317.75 260.296875 311.4375 C 253.222656 305.375 247.667969 297.671875 244.382812 288.199219 C 244.761719 285.421875 246.152344 283.023438 249.308594 282.519531 C 253.351562 281.886719 253.855469 287.191406 254.488281 289.96875 C 256.507812 298.304688 261.308594 306.007812 268 311.4375 C 271.789062 314.464844 276.085938 316.867188 280.757812 318.253906 C 290.863281 321.160156 301.597656 319.769531 312.078125 320.402344 C 323.824219 321.03125 335.320312 324.1875 345.800781 329.492188 C 347.316406 330 348.707031 331.132812 348.453125 332.523438 Z M 348.453125 332.523438 " fill-opacity="1" fill-rule="nonzero"/><path stroke-linecap="round" transform="matrix(1.262996, 0, 0, 1.262747, 41.672592, -117.89846)" fill="none" stroke-linejoin="round" d="M 181.799947 293.698641 L 183.899989 303.600784 C 186.999019 318.399864 198.201304 330.099303 212.799531 333.799073 L 243.100133 341.498678 C 243.100133 341.498678 249.601293 336.100602 251.701334 338.098973 C 253.0993 339.500307 249.499229 343.500142 249.499229 343.500142 C 249.499229 343.500142 261.199461 346.698773 262.201543 350.500626 C 262.801555 352.601081 259.60046 350.698607 256.600401 349.801506 C 259.201483 351.298737 261.199461 352.700071 261.601531 354.299387 C 262.201543 356.699906 258.001459 354.200396 254.701394 353.099127 C 256.801436 354.401471 258.199401 355.400656 258.601471 356.699906 C 259.300454 359.199416 254.899336 356.798897 251.500299 355.598637 C 253.201364 356.699906 254.800365 356.699906 255.100371 357.900166 C 256.09936 361.698927 240.90112 356.798897 240.90112 356.798897 L 205.200412 352.901146 C 201.300334 352.498997 197.499228 351.799877 193.701214 350.698607 C 186.099002 348.499162 179.099894 345.000467 173.30081 340.001447 C 167.498633 335.101417 163.100607 328.800053 160.499525 320.899374 C 158.300512 314.000973 157.499465 306.799415 158.399483 299.600949 C 158.501547 298.49968 158.699489 297.599485 158.900524 296.801374 " stroke="#112544" stroke-width="1.5" stroke-opacity="1" stroke-miterlimit="10"/><path stroke-linecap="round" transform="matrix(1.262996, 0, 0, 1.262747, 41.672592, -117.89846)" fill-opacity="1" fill="#8d95ff" fill-rule="nonzero" stroke-linejoin="round" d="M 158.79846 296.801374 C 158.600518 297.599485 158.498454 298.49968 158.300512 299.600949 C 157.400494 306.799415 158.201541 314.000973 160.400554 320.899374 C 160.898502 322.600773 161.600577 324.200088 162.29956 325.700413 C 171.899751 318.699929 183.299977 318.099799 197.100251 325.700413 C 190.50012 320.101263 185.798996 312.398565 183.99896 303.600784 L 181.898918 293.698641 " stroke="#112544" stroke-width="1.5" stroke-opacity="1" stroke-miterlimit="10"/><path stroke-linecap="round" transform="matrix(1.262996, 0, 0, 1.262747, 41.672592, -117.89846)" fill-opacity="1" fill="#fcbba4" fill-rule="nonzero" stroke-linejoin="round" d="M 285.199937 355.100591 C 282.598855 357.600101 275.398712 360.798732 272.698658 358.599287 C 271.300692 357.501111 266.800603 350.098477 269.398593 349.501441 C 270.598616 349.300367 271.699669 351.100756 272.899693 352.601081 C 271.498634 349.501441 269.398593 346.698773 270.898622 345.798578 C 271.999675 345.201541 273.598676 347.499977 274.999735 349.300367 C 273.598676 346.299717 271.600698 343.299068 272.800722 342.999003 C 274.300752 342.599947 276.199759 344.901476 277.798759 347.199912 C 276.700799 344.499327 275.098706 342.098808 276.400793 341.498678 C 278.998783 340.301512 283.099895 350.800691 283.099895 350.800691 C 283.099895 350.800691 286.498932 346.998837 287.899991 348.199097 C 290.000032 349.999487 286.798938 353.600266 285.199937 355.100591 Z M 285.199937 355.100591 " stroke="#112544" stroke-width="1.5" stroke-opacity="1" stroke-miterlimit="10"/><path fill="#8d95ff" d="M 482.078125 646.949219 L 682.136719 646.949219 C 689.96875 634.195312 713.332031 593.660156 702.722656 581.285156 C 690.09375 566.511719 656.246094 604.644531 656.246094 604.644531 C 656.246094 604.644531 682.390625 551.484375 663.699219 541.128906 C 641.722656 529.132812 611.914062 565.375 611.914062 565.375 C 611.914062 565.375 622.144531 482.285156 590.066406 482.917969 C 559.628906 483.421875 554.449219 572.699219 554.449219 572.699219 C 554.449219 572.699219 513.023438 461.828125 484.730469 472.816406 C 454.039062 484.8125 502.539062 603.636719 502.539062 603.636719 C 502.539062 603.636719 462.125 545.296875 441.03125 562.597656 C 415.644531 583.429688 470.460938 636.214844 482.078125 646.949219 Z M 482.078125 646.949219 " fill-opacity="1" fill-rule="nonzero"/><path fill="#757bff" d="M 625.304688 552.117188 C 625.175781 566.132812 623.789062 577.117188 623.789062 577.117188 C 623.789062 577.117188 648.921875 546.433594 670.011719 550.851562 C 669.253906 546.433594 667.234375 543.023438 663.699219 541.128906 C 651.066406 534.3125 635.910156 543.277344 625.304688 552.117188 Z M 625.304688 552.117188 " fill-opacity="1" fill-rule="nonzero"/><path fill="#757bff" d="M 555.710938 558.933594 C 562.152344 573.582031 566.195312 584.441406 566.195312 584.441406 C 566.195312 584.441406 571.371094 495.164062 601.8125 494.660156 C 603.707031 494.660156 605.347656 494.914062 606.988281 495.417969 C 603.453125 487.839844 598.023438 482.789062 590.066406 482.917969 C 567.207031 483.296875 558.617188 533.933594 555.710938 558.933594 Z M 555.710938 558.933594 " fill-opacity="1" fill-rule="nonzero"/><path fill="#757bff" d="M 500.140625 597.699219 C 508.097656 606.792969 513.78125 614.746094 514.285156 615.503906 C 513.148438 612.726562 466.164062 496.554688 496.476562 484.683594 C 501.023438 482.917969 505.824219 484.304688 510.875 487.714844 C 501.910156 476.476562 492.816406 469.65625 484.730469 472.816406 C 458.207031 483.167969 490.792969 573.328125 500.140625 597.699219 Z M 500.140625 597.699219 " fill-opacity="1" fill-rule="nonzero"/><path fill="#757bff" d="M 479.425781 644.296875 C 460.230469 623.964844 433.582031 590.125 452.777344 574.339844 C 462.125 566.761719 475.257812 573.835938 487.003906 584.1875 C 473.363281 569.035156 453.660156 552.242188 441.03125 562.597656 C 417.289062 582.042969 463.765625 629.648438 479.425781 644.296875 Z M 479.425781 644.296875 " fill-opacity="1" fill-rule="nonzero"/><g clip-path="url(#eb82d23768)"><path stroke-linecap="round" transform="matrix(1.262996, 0, 0, 1.262747, 41.672592, -117.89846)" fill="none" stroke-linejoin="round" d="M 348.699135 605.701225 L 507.099186 605.701225 C 513.30034 595.601101 531.798645 563.500338 523.398478 553.700279 C 513.399311 542.000839 486.59981 572.199128 486.59981 572.199128 C 486.59981 572.199128 507.300221 530.100325 492.500958 521.899581 C 475.100613 512.399587 451.499113 541.100645 451.499113 541.100645 C 451.499113 541.100645 459.599274 475.299804 434.200832 475.800943 C 410.101385 476.199999 406.000272 546.900869 406.000272 546.900869 C 406.000272 546.900869 373.200652 459.09939 350.799177 467.801274 C 326.498695 477.301268 364.899457 571.401018 364.899457 571.401018 C 364.899457 571.401018 332.900884 525.200296 316.199521 538.901199 C 296.099123 555.398585 339.501015 597.200416 348.699135 605.701225 Z M 348.699135 605.701225 " stroke="#112544" stroke-width="1.5" stroke-opacity="1" stroke-miterlimit="10"/></g><path fill="#b9c3fc" d="M 522.875 646.949219 L 630.230469 646.949219 C 634.398438 640.128906 647.027344 618.410156 641.34375 611.71875 C 634.523438 603.761719 616.335938 624.34375 616.335938 624.34375 C 616.335938 624.34375 630.355469 595.804688 620.25 590.25 C 608.378906 583.808594 592.464844 603.257812 592.464844 603.257812 C 592.464844 603.257812 597.894531 558.679688 580.71875 558.933594 C 564.425781 559.1875 561.648438 607.171875 561.648438 607.171875 C 561.648438 607.171875 539.417969 547.695312 524.261719 553.628906 C 507.71875 560.070312 533.863281 623.839844 533.863281 623.839844 C 533.863281 623.839844 512.136719 592.523438 500.773438 601.867188 C 487.132812 612.851562 516.558594 641.140625 522.875 646.949219 Z M 522.875 646.949219 " fill-opacity="1" fill-rule="nonzero"/><path fill="#e1e5ff" d="M 592.464844 618.664062 C 592.464844 618.664062 608.378906 599.214844 620.25 605.65625 C 621.136719 606.160156 621.894531 606.917969 622.523438 607.800781 C 624.417969 600.480469 625.050781 592.902344 620.25 590.25 C 610.019531 584.695312 596.757812 598.457031 593.347656 602.246094 C 593.476562 611.085938 592.464844 618.664062 592.464844 618.664062 Z M 592.464844 618.664062 " fill-opacity="1" fill-rule="nonzero"/><path fill="#e1e5ff" d="M 561.648438 622.449219 C 561.648438 622.449219 564.425781 574.59375 580.71875 574.214844 C 589.308594 574.085938 592.210938 585.074219 593.097656 596.183594 C 593.855469 583.683594 593.726562 558.554688 580.71875 558.808594 C 564.425781 559.058594 561.648438 607.042969 561.648438 607.042969 C 561.648438 607.042969 539.417969 547.441406 524.261719 553.503906 C 518.707031 555.652344 517.949219 564.492188 519.464844 575.222656 C 520.222656 572.191406 521.738281 569.921875 524.261719 568.910156 C 539.417969 562.976562 561.648438 622.449219 561.648438 622.449219 Z M 561.648438 622.449219 " fill-opacity="1" fill-rule="nonzero"/><path fill="#e1e5ff" d="M 499.507812 618.285156 C 499.886719 617.90625 500.265625 617.527344 500.644531 617.148438 C 511.757812 608.054688 532.851562 637.980469 533.609375 639.117188 C 533.355469 638.488281 528.429688 626.238281 524.261719 612.222656 C 516.9375 604.394531 507.085938 596.3125 500.519531 601.742188 C 495.847656 605.65625 496.476562 611.71875 499.507812 618.285156 Z M 499.507812 618.285156 " fill-opacity="1" fill-rule="nonzero"/><g clip-path="url(#6cd4ac1b6c)"><path stroke-linecap="round" transform="matrix(1.262996, 0, 0, 1.262747, 41.672592, -117.89846)" fill="none" stroke-linejoin="round" d="M 381.000807 605.701225 L 466.001463 605.701225 C 469.301528 600.300056 479.300696 583.100457 474.800607 577.801372 C 469.400499 571.500008 455.000214 587.799412 455.000214 587.799412 C 455.000214 587.799412 466.100434 565.198644 458.099244 560.799754 C 448.700089 555.69865 436.099839 571.100953 436.099839 571.100953 C 436.099839 571.100953 440.398893 535.798466 426.799654 535.99954 C 413.899398 536.200615 411.700385 574.200593 411.700385 574.200593 C 411.700385 574.200593 394.099005 527.099676 382.098767 531.798631 C 369.000569 536.899735 389.70098 587.400357 389.70098 587.400357 C 389.70098 587.400357 372.498577 562.600144 363.501491 569.999683 C 352.701277 578.698473 375.999677 601.101261 381.000807 605.701225 Z M 381.000807 605.701225 " stroke="#112544" stroke-width="1.5" stroke-opacity="1" stroke-miterlimit="10"/></g><g clip-path="url(#b6a0ab8d63)"><path stroke-linecap="round" transform="matrix(1.262996, 0, 0, 1.262747, 41.672592, -117.89846)" fill="none" stroke-linejoin="round" d="M 317.798522 605.701225 L 300.40127 605.701225 " stroke="#112544" stroke-width="1.5" stroke-opacity="1" stroke-miterlimit="10"/></g><g clip-path="url(#e62abe8d2b)"><path stroke-linecap="round" transform="matrix(1.262996, 0, 0, 1.262747, 41.672592, -117.89846)" fill="none" stroke-linejoin="round" d="M 348.699135 605.701225 L 329.300812 605.701225 " stroke="#112544" stroke-width="1.5" stroke-opacity="1" stroke-miterlimit="10"/></g><g clip-path="url(#62bafa30f8)"><path stroke-linecap="round" transform="matrix(1.262996, 0, 0, 1.262747, 41.672592, -117.89846)" fill="none" stroke-linejoin="round" d="M 507.20125 605.701225 L 537.999799 605.701225 " stroke="#112544" stroke-width="1.5" stroke-opacity="1" stroke-miterlimit="10"/></g><g clip-path="url(#146963ce68)"><path stroke-linecap="round" transform="matrix(1.262996, 0, 0, 1.262747, 41.672592, -117.89846)" fill="none" stroke-linejoin="round" d="M 550.099008 605.701225 L 562.600287 605.701225 " stroke="#112544" stroke-width="1.5" stroke-opacity="1" stroke-miterlimit="10"/></g></svg>